ISO-10303-21;
HEADER;
/* Generated by software containing ST-Developer
 * from STEP Tools, Inc. (www.steptools.com) 
 */

FILE_DESCRIPTION(
/* description */ (''),
/* implementation_level */ '2;1');

FILE_NAME(
/* name */ 'SolarPath+.step',
/* time_stamp */ '2026-09-05T21:53:25+03:00',
/* author */ (''),
/* organization */ (''),
/* preprocessor_version */ 'ST-DEVELOPER v20.1',
/* originating_system */ 'Autodesk Translation Framework v14.24.0.0',
/* authorisation */ '');

FILE_SCHEMA (('AUTOMOTIVE_DESIGN { 1 0 10303 214 3 1 1 }'));
ENDSEC;

DATA;
#10=MECHANICAL_DESIGN_GEOMETRIC_PRESENTATION_REPRESENTATION('',(#22,#23,
#24,#25,#26,#27,#28,#29,#30,#31,#32,#33,#34,#35,#36,#37),#2157);
#11=SHAPE_REPRESENTATION_RELATIONSHIP('SRR','None',#2164,#12);
#12=ADVANCED_BREP_SHAPE_REPRESENTATION('',(#38,#39,#40,#41,#42,#43,#44,
#45,#46,#47,#48,#49,#50,#51,#52,#53),#2156);
#13=CIRCLE('',#1430,2.5);
#14=CIRCLE('',#1431,2.5);
#15=CIRCLE('',#1435,2.5);
#16=CIRCLE('',#1436,2.5);
#17=CIRCLE('',#1440,2.5);
#18=CIRCLE('',#1441,2.5);
#19=CYLINDRICAL_SURFACE('',#1429,2.5);
#20=CYLINDRICAL_SURFACE('',#1434,2.5);
#21=CYLINDRICAL_SURFACE('',#1439,2.5);
#22=STYLED_ITEM('',(#2173),#38);
#23=STYLED_ITEM('',(#2173),#39);
#24=STYLED_ITEM('',(#2173),#40);
#25=STYLED_ITEM('',(#2173),#41);
#26=STYLED_ITEM('',(#2174),#42);
#27=STYLED_ITEM('',(#2173),#43);
#28=STYLED_ITEM('',(#2173),#44);
#29=STYLED_ITEM('',(#2173),#45);
#30=STYLED_ITEM('',(#2173),#46);
#31=STYLED_ITEM('',(#2173),#47);
#32=STYLED_ITEM('',(#2173),#48);
#33=STYLED_ITEM('',(#2173),#49);
#34=STYLED_ITEM('',(#2173),#50);
#35=STYLED_ITEM('',(#2173),#51);
#36=STYLED_ITEM('',(#2173),#52);
#37=STYLED_ITEM('',(#2173),#53);
#38=MANIFOLD_SOLID_BREP('G\X\F6vde1',#1322);
#39=MANIFOLD_SOLID_BREP('G\X\F6vde2',#1323);
#40=MANIFOLD_SOLID_BREP('G\X\F6vde5',#1324);
#41=MANIFOLD_SOLID_BREP('G\X\F6vde6',#1325);
#42=MANIFOLD_SOLID_BREP('G\X\F6vde7',#1326);
#43=MANIFOLD_SOLID_BREP('G\X\F6vde8',#1327);
#44=MANIFOLD_SOLID_BREP('G\X\F6vde17',#1328);
#45=MANIFOLD_SOLID_BREP('G\X\F6vde18',#1329);
#46=MANIFOLD_SOLID_BREP('G\X\F6vde19',#1330);
#47=MANIFOLD_SOLID_BREP('G\X\F6vde20',#1331);
#48=MANIFOLD_SOLID_BREP('G\X\F6vde21',#1332);
#49=MANIFOLD_SOLID_BREP('G\X\F6vde22',#1333);
#50=MANIFOLD_SOLID_BREP('G\X\F6vde24',#1334);
#51=MANIFOLD_SOLID_BREP('G\X\F6vde26',#1335);
#52=MANIFOLD_SOLID_BREP('G\X\F6vde28',#1336);
#53=MANIFOLD_SOLID_BREP('G\X\F6vde29',#1337);
#54=FACE_OUTER_BOUND('',#141,.T.);
#55=FACE_OUTER_BOUND('',#142,.T.);
#56=FACE_OUTER_BOUND('',#143,.T.);
#57=FACE_OUTER_BOUND('',#144,.T.);
#58=FACE_OUTER_BOUND('',#145,.T.);
#59=FACE_OUTER_BOUND('',#146,.T.);
#60=FACE_OUTER_BOUND('',#147,.T.);
#61=FACE_OUTER_BOUND('',#148,.T.);
#62=FACE_OUTER_BOUND('',#149,.T.);
#63=FACE_OUTER_BOUND('',#150,.T.);
#64=FACE_OUTER_BOUND('',#151,.T.);
#65=FACE_OUTER_BOUND('',#152,.T.);
#66=FACE_OUTER_BOUND('',#153,.T.);
#67=FACE_OUTER_BOUND('',#154,.T.);
#68=FACE_OUTER_BOUND('',#155,.T.);
#69=FACE_OUTER_BOUND('',#156,.T.);
#70=FACE_OUTER_BOUND('',#157,.T.);
#71=FACE_OUTER_BOUND('',#158,.T.);
#72=FACE_OUTER_BOUND('',#159,.T.);
#73=FACE_OUTER_BOUND('',#160,.T.);
#74=FACE_OUTER_BOUND('',#161,.T.);
#75=FACE_OUTER_BOUND('',#162,.T.);
#76=FACE_OUTER_BOUND('',#163,.T.);
#77=FACE_OUTER_BOUND('',#164,.T.);
#78=FACE_OUTER_BOUND('',#165,.T.);
#79=FACE_OUTER_BOUND('',#166,.T.);
#80=FACE_OUTER_BOUND('',#167,.T.);
#81=FACE_OUTER_BOUND('',#168,.T.);
#82=FACE_OUTER_BOUND('',#169,.T.);
#83=FACE_OUTER_BOUND('',#170,.T.);
#84=FACE_OUTER_BOUND('',#171,.T.);
#85=FACE_OUTER_BOUND('',#172,.T.);
#86=FACE_OUTER_BOUND('',#173,.T.);
#87=FACE_OUTER_BOUND('',#174,.T.);
#88=FACE_OUTER_BOUND('',#175,.T.);
#89=FACE_OUTER_BOUND('',#176,.T.);
#90=FACE_OUTER_BOUND('',#177,.T.);
#91=FACE_OUTER_BOUND('',#178,.T.);
#92=FACE_OUTER_BOUND('',#179,.T.);
#93=FACE_OUTER_BOUND('',#180,.T.);
#94=FACE_OUTER_BOUND('',#181,.T.);
#95=FACE_OUTER_BOUND('',#182,.T.);
#96=FACE_OUTER_BOUND('',#183,.T.);
#97=FACE_OUTER_BOUND('',#184,.T.);
#98=FACE_OUTER_BOUND('',#185,.T.);
#99=FACE_OUTER_BOUND('',#186,.T.);
#100=FACE_OUTER_BOUND('',#187,.T.);
#101=FACE_OUTER_BOUND('',#188,.T.);
#102=FACE_OUTER_BOUND('',#189,.T.);
#103=FACE_OUTER_BOUND('',#190,.T.);
#104=FACE_OUTER_BOUND('',#191,.T.);
#105=FACE_OUTER_BOUND('',#192,.T.);
#106=FACE_OUTER_BOUND('',#193,.T.);
#107=FACE_OUTER_BOUND('',#194,.T.);
#108=FACE_OUTER_BOUND('',#195,.T.);
#109=FACE_OUTER_BOUND('',#196,.T.);
#110=FACE_OUTER_BOUND('',#197,.T.);
#111=FACE_OUTER_BOUND('',#198,.T.);
#112=FACE_OUTER_BOUND('',#199,.T.);
#113=FACE_OUTER_BOUND('',#200,.T.);
#114=FACE_OUTER_BOUND('',#201,.T.);
#115=FACE_OUTER_BOUND('',#202,.T.);
#116=FACE_OUTER_BOUND('',#203,.T.);
#117=FACE_OUTER_BOUND('',#204,.T.);
#118=FACE_OUTER_BOUND('',#205,.T.);
#119=FACE_OUTER_BOUND('',#206,.T.);
#120=FACE_OUTER_BOUND('',#207,.T.);
#121=FACE_OUTER_BOUND('',#208,.T.);
#122=FACE_OUTER_BOUND('',#209,.T.);
#123=FACE_OUTER_BOUND('',#210,.T.);
#124=FACE_OUTER_BOUND('',#211,.T.);
#125=FACE_OUTER_BOUND('',#212,.T.);
#126=FACE_OUTER_BOUND('',#213,.T.);
#127=FACE_OUTER_BOUND('',#214,.T.);
#128=FACE_OUTER_BOUND('',#215,.T.);
#129=FACE_OUTER_BOUND('',#216,.T.);
#130=FACE_OUTER_BOUND('',#217,.T.);
#131=FACE_OUTER_BOUND('',#218,.T.);
#132=FACE_OUTER_BOUND('',#219,.T.);
#133=FACE_OUTER_BOUND('',#220,.T.);
#134=FACE_OUTER_BOUND('',#221,.T.);
#135=FACE_OUTER_BOUND('',#222,.T.);
#136=FACE_OUTER_BOUND('',#223,.T.);
#137=FACE_OUTER_BOUND('',#224,.T.);
#138=FACE_OUTER_BOUND('',#225,.T.);
#139=FACE_OUTER_BOUND('',#226,.T.);
#140=FACE_OUTER_BOUND('',#227,.T.);
#141=EDGE_LOOP('',(#821,#822,#823,#824));
#142=EDGE_LOOP('',(#825,#826,#827,#828));
#143=EDGE_LOOP('',(#829,#830,#831,#832));
#144=EDGE_LOOP('',(#833,#834,#835,#836));
#145=EDGE_LOOP('',(#837,#838,#839,#840));
#146=EDGE_LOOP('',(#841,#842,#843,#844));
#147=EDGE_LOOP('',(#845,#846,#847,#848));
#148=EDGE_LOOP('',(#849,#850,#851,#852));
#149=EDGE_LOOP('',(#853,#854,#855,#856));
#150=EDGE_LOOP('',(#857,#858,#859,#860));
#151=EDGE_LOOP('',(#861,#862,#863,#864));
#152=EDGE_LOOP('',(#865,#866,#867,#868));
#153=EDGE_LOOP('',(#869,#870,#871,#872));
#154=EDGE_LOOP('',(#873,#874,#875,#876));
#155=EDGE_LOOP('',(#877,#878,#879,#880));
#156=EDGE_LOOP('',(#881,#882,#883,#884));
#157=EDGE_LOOP('',(#885,#886,#887,#888));
#158=EDGE_LOOP('',(#889,#890,#891,#892));
#159=EDGE_LOOP('',(#893,#894,#895,#896));
#160=EDGE_LOOP('',(#897,#898,#899,#900));
#161=EDGE_LOOP('',(#901,#902,#903,#904));
#162=EDGE_LOOP('',(#905,#906,#907,#908));
#163=EDGE_LOOP('',(#909,#910,#911,#912));
#164=EDGE_LOOP('',(#913,#914,#915,#916));
#165=EDGE_LOOP('',(#917,#918,#919,#920));
#166=EDGE_LOOP('',(#921,#922,#923,#924));
#167=EDGE_LOOP('',(#925,#926,#927,#928));
#168=EDGE_LOOP('',(#929,#930,#931,#932));
#169=EDGE_LOOP('',(#933,#934,#935,#936));
#170=EDGE_LOOP('',(#937,#938,#939,#940));
#171=EDGE_LOOP('',(#941,#942,#943,#944));
#172=EDGE_LOOP('',(#945,#946,#947,#948));
#173=EDGE_LOOP('',(#949,#950,#951,#952));
#174=EDGE_LOOP('',(#953,#954,#955,#956));
#175=EDGE_LOOP('',(#957,#958,#959,#960));
#176=EDGE_LOOP('',(#961,#962,#963,#964));
#177=EDGE_LOOP('',(#965,#966,#967,#968));
#178=EDGE_LOOP('',(#969,#970,#971,#972));
#179=EDGE_LOOP('',(#973,#974,#975,#976));
#180=EDGE_LOOP('',(#977,#978,#979,#980));
#181=EDGE_LOOP('',(#981,#982,#983,#984));
#182=EDGE_LOOP('',(#985,#986,#987,#988));
#183=EDGE_LOOP('',(#989,#990,#991,#992));
#184=EDGE_LOOP('',(#993,#994,#995,#996));
#185=EDGE_LOOP('',(#997,#998,#999,#1000));
#186=EDGE_LOOP('',(#1001,#1002,#1003,#1004));
#187=EDGE_LOOP('',(#1005,#1006,#1007,#1008));
#188=EDGE_LOOP('',(#1009,#1010,#1011,#1012));
#189=EDGE_LOOP('',(#1013,#1014,#1015,#1016));
#190=EDGE_LOOP('',(#1017,#1018,#1019,#1020));
#191=EDGE_LOOP('',(#1021,#1022,#1023,#1024));
#192=EDGE_LOOP('',(#1025,#1026,#1027,#1028));
#193=EDGE_LOOP('',(#1029,#1030,#1031,#1032));
#194=EDGE_LOOP('',(#1033,#1034,#1035,#1036));
#195=EDGE_LOOP('',(#1037,#1038,#1039,#1040));
#196=EDGE_LOOP('',(#1041,#1042,#1043,#1044));
#197=EDGE_LOOP('',(#1045,#1046,#1047,#1048));
#198=EDGE_LOOP('',(#1049,#1050,#1051,#1052));
#199=EDGE_LOOP('',(#1053,#1054,#1055,#1056));
#200=EDGE_LOOP('',(#1057,#1058,#1059,#1060));
#201=EDGE_LOOP('',(#1061,#1062,#1063,#1064));
#202=EDGE_LOOP('',(#1065,#1066,#1067,#1068));
#203=EDGE_LOOP('',(#1069,#1070,#1071,#1072));
#204=EDGE_LOOP('',(#1073,#1074,#1075,#1076));
#205=EDGE_LOOP('',(#1077,#1078,#1079,#1080));
#206=EDGE_LOOP('',(#1081,#1082,#1083,#1084));
#207=EDGE_LOOP('',(#1085,#1086,#1087,#1088));
#208=EDGE_LOOP('',(#1089,#1090,#1091,#1092));
#209=EDGE_LOOP('',(#1093,#1094,#1095,#1096));
#210=EDGE_LOOP('',(#1097,#1098,#1099,#1100));
#211=EDGE_LOOP('',(#1101,#1102,#1103,#1104));
#212=EDGE_LOOP('',(#1105,#1106,#1107,#1108));
#213=EDGE_LOOP('',(#1109,#1110,#1111,#1112));
#214=EDGE_LOOP('',(#1113,#1114,#1115,#1116));
#215=EDGE_LOOP('',(#1117,#1118,#1119,#1120));
#216=EDGE_LOOP('',(#1121,#1122,#1123,#1124));
#217=EDGE_LOOP('',(#1125,#1126,#1127,#1128));
#218=EDGE_LOOP('',(#1129,#1130,#1131,#1132));
#219=EDGE_LOOP('',(#1133,#1134,#1135,#1136));
#220=EDGE_LOOP('',(#1137));
#221=EDGE_LOOP('',(#1138));
#222=EDGE_LOOP('',(#1139,#1140,#1141,#1142));
#223=EDGE_LOOP('',(#1143));
#224=EDGE_LOOP('',(#1144));
#225=EDGE_LOOP('',(#1145,#1146,#1147,#1148));
#226=EDGE_LOOP('',(#1149));
#227=EDGE_LOOP('',(#1150));
#228=LINE('',#1795,#387);
#229=LINE('',#1797,#388);
#230=LINE('',#1799,#389);
#231=LINE('',#1800,#390);
#232=LINE('',#1803,#391);
#233=LINE('',#1805,#392);
#234=LINE('',#1806,#393);
#235=LINE('',#1809,#394);
#236=LINE('',#1811,#395);
#237=LINE('',#1812,#396);
#238=LINE('',#1814,#397);
#239=LINE('',#1815,#398);
#240=LINE('',#1821,#399);
#241=LINE('',#1823,#400);
#242=LINE('',#1825,#401);
#243=LINE('',#1826,#402);
#244=LINE('',#1829,#403);
#245=LINE('',#1831,#404);
#246=LINE('',#1832,#405);
#247=LINE('',#1835,#406);
#248=LINE('',#1837,#407);
#249=LINE('',#1838,#408);
#250=LINE('',#1840,#409);
#251=LINE('',#1841,#410);
#252=LINE('',#1847,#411);
#253=LINE('',#1849,#412);
#254=LINE('',#1851,#413);
#255=LINE('',#1852,#414);
#256=LINE('',#1855,#415);
#257=LINE('',#1857,#416);
#258=LINE('',#1858,#417);
#259=LINE('',#1861,#418);
#260=LINE('',#1863,#419);
#261=LINE('',#1864,#420);
#262=LINE('',#1866,#421);
#263=LINE('',#1867,#422);
#264=LINE('',#1873,#423);
#265=LINE('',#1875,#424);
#266=LINE('',#1877,#425);
#267=LINE('',#1878,#426);
#268=LINE('',#1881,#427);
#269=LINE('',#1883,#428);
#270=LINE('',#1884,#429);
#271=LINE('',#1887,#430);
#272=LINE('',#1889,#431);
#273=LINE('',#1890,#432);
#274=LINE('',#1892,#433);
#275=LINE('',#1893,#434);
#276=LINE('',#1899,#435);
#277=LINE('',#1901,#436);
#278=LINE('',#1903,#437);
#279=LINE('',#1904,#438);
#280=LINE('',#1907,#439);
#281=LINE('',#1909,#440);
#282=LINE('',#1910,#441);
#283=LINE('',#1913,#442);
#284=LINE('',#1915,#443);
#285=LINE('',#1916,#444);
#286=LINE('',#1918,#445);
#287=LINE('',#1919,#446);
#288=LINE('',#1925,#447);
#289=LINE('',#1927,#448);
#290=LINE('',#1929,#449);
#291=LINE('',#1930,#450);
#292=LINE('',#1933,#451);
#293=LINE('',#1935,#452);
#294=LINE('',#1936,#453);
#295=LINE('',#1939,#454);
#296=LINE('',#1941,#455);
#297=LINE('',#1942,#456);
#298=LINE('',#1944,#457);
#299=LINE('',#1945,#458);
#300=LINE('',#1951,#459);
#301=LINE('',#1953,#460);
#302=LINE('',#1955,#461);
#303=LINE('',#1956,#462);
#304=LINE('',#1959,#463);
#305=LINE('',#1961,#464);
#306=LINE('',#1962,#465);
#307=LINE('',#1965,#466);
#308=LINE('',#1967,#467);
#309=LINE('',#1968,#468);
#310=LINE('',#1970,#469);
#311=LINE('',#1971,#470);
#312=LINE('',#1977,#471);
#313=LINE('',#1979,#472);
#314=LINE('',#1981,#473);
#315=LINE('',#1982,#474);
#316=LINE('',#1985,#475);
#317=LINE('',#1987,#476);
#318=LINE('',#1988,#477);
#319=LINE('',#1991,#478);
#320=LINE('',#1993,#479);
#321=LINE('',#1994,#480);
#322=LINE('',#1996,#481);
#323=LINE('',#1997,#482);
#324=LINE('',#2003,#483);
#325=LINE('',#2005,#484);
#326=LINE('',#2007,#485);
#327=LINE('',#2008,#486);
#328=LINE('',#2011,#487);
#329=LINE('',#2013,#488);
#330=LINE('',#2014,#489);
#331=LINE('',#2017,#490);
#332=LINE('',#2019,#491);
#333=LINE('',#2020,#492);
#334=LINE('',#2022,#493);
#335=LINE('',#2023,#494);
#336=LINE('',#2029,#495);
#337=LINE('',#2031,#496);
#338=LINE('',#2033,#497);
#339=LINE('',#2034,#498);
#340=LINE('',#2037,#499);
#341=LINE('',#2039,#500);
#342=LINE('',#2040,#501);
#343=LINE('',#2043,#502);
#344=LINE('',#2045,#503);
#345=LINE('',#2046,#504);
#346=LINE('',#2048,#505);
#347=LINE('',#2049,#506);
#348=LINE('',#2055,#507);
#349=LINE('',#2057,#508);
#350=LINE('',#2059,#509);
#351=LINE('',#2060,#510);
#352=LINE('',#2063,#511);
#353=LINE('',#2065,#512);
#354=LINE('',#2066,#513);
#355=LINE('',#2069,#514);
#356=LINE('',#2071,#515);
#357=LINE('',#2072,#516);
#358=LINE('',#2074,#517);
#359=LINE('',#2075,#518);
#360=LINE('',#2081,#519);
#361=LINE('',#2083,#520);
#362=LINE('',#2085,#521);
#363=LINE('',#2086,#522);
#364=LINE('',#2089,#523);
#365=LINE('',#2091,#524);
#366=LINE('',#2092,#525);
#367=LINE('',#2095,#526);
#368=LINE('',#2097,#527);
#369=LINE('',#2098,#528);
#370=LINE('',#2100,#529);
#371=LINE('',#2101,#530);
#372=LINE('',#2107,#531);
#373=LINE('',#2109,#532);
#374=LINE('',#2111,#533);
#375=LINE('',#2112,#534);
#376=LINE('',#2115,#535);
#377=LINE('',#2117,#536);
#378=LINE('',#2118,#537);
#379=LINE('',#2121,#538);
#380=LINE('',#2123,#539);
#381=LINE('',#2124,#540);
#382=LINE('',#2126,#541);
#383=LINE('',#2127,#542);
#384=LINE('',#2134,#543);
#385=LINE('',#2142,#544);
#386=LINE('',#2150,#545);
#387=VECTOR('',#1448,1.);
#388=VECTOR('',#1449,1.);
#389=VECTOR('',#1450,1.);
#390=VECTOR('',#1451,1.);
#391=VECTOR('',#1454,1.);
#392=VECTOR('',#1455,1.);
#393=VECTOR('',#1456,1.);
#394=VECTOR('',#1459,1.);
#395=VECTOR('',#1460,1.);
#396=VECTOR('',#1461,1.);
#397=VECTOR('',#1464,1.);
#398=VECTOR('',#1465,1.);
#399=VECTOR('',#1472,1.);
#400=VECTOR('',#1473,1.);
#401=VECTOR('',#1474,1.);
#402=VECTOR('',#1475,1.);
#403=VECTOR('',#1478,1.);
#404=VECTOR('',#1479,1.);
#405=VECTOR('',#1480,1.);
#406=VECTOR('',#1483,1.);
#407=VECTOR('',#1484,1.);
#408=VECTOR('',#1485,1.);
#409=VECTOR('',#1488,1.);
#410=VECTOR('',#1489,1.);
#411=VECTOR('',#1496,1.);
#412=VECTOR('',#1497,1.);
#413=VECTOR('',#1498,1.);
#414=VECTOR('',#1499,1.);
#415=VECTOR('',#1502,1.);
#416=VECTOR('',#1503,1.);
#417=VECTOR('',#1504,1.);
#418=VECTOR('',#1507,1.);
#419=VECTOR('',#1508,1.);
#420=VECTOR('',#1509,1.);
#421=VECTOR('',#1512,1.);
#422=VECTOR('',#1513,1.);
#423=VECTOR('',#1520,1.);
#424=VECTOR('',#1521,1.);
#425=VECTOR('',#1522,1.);
#426=VECTOR('',#1523,1.);
#427=VECTOR('',#1526,1.);
#428=VECTOR('',#1527,1.);
#429=VECTOR('',#1528,1.);
#430=VECTOR('',#1531,1.);
#431=VECTOR('',#1532,1.);
#432=VECTOR('',#1533,1.);
#433=VECTOR('',#1536,1.);
#434=VECTOR('',#1537,1.);
#435=VECTOR('',#1544,1.);
#436=VECTOR('',#1545,1.);
#437=VECTOR('',#1546,1.);
#438=VECTOR('',#1547,1.);
#439=VECTOR('',#1550,1.);
#440=VECTOR('',#1551,1.);
#441=VECTOR('',#1552,1.);
#442=VECTOR('',#1555,1.);
#443=VECTOR('',#1556,1.);
#444=VECTOR('',#1557,1.);
#445=VECTOR('',#1560,1.);
#446=VECTOR('',#1561,1.);
#447=VECTOR('',#1568,1.);
#448=VECTOR('',#1569,1.);
#449=VECTOR('',#1570,1.);
#450=VECTOR('',#1571,1.);
#451=VECTOR('',#1574,1.);
#452=VECTOR('',#1575,1.);
#453=VECTOR('',#1576,1.);
#454=VECTOR('',#1579,1.);
#455=VECTOR('',#1580,1.);
#456=VECTOR('',#1581,1.);
#457=VECTOR('',#1584,1.);
#458=VECTOR('',#1585,1.);
#459=VECTOR('',#1592,1.);
#460=VECTOR('',#1593,1.);
#461=VECTOR('',#1594,1.);
#462=VECTOR('',#1595,1.);
#463=VECTOR('',#1598,1.);
#464=VECTOR('',#1599,1.);
#465=VECTOR('',#1600,1.);
#466=VECTOR('',#1603,1.);
#467=VECTOR('',#1604,1.);
#468=VECTOR('',#1605,1.);
#469=VECTOR('',#1608,1.);
#470=VECTOR('',#1609,1.);
#471=VECTOR('',#1616,1.);
#472=VECTOR('',#1617,1.);
#473=VECTOR('',#1618,1.);
#474=VECTOR('',#1619,1.);
#475=VECTOR('',#1622,1.);
#476=VECTOR('',#1623,1.);
#477=VECTOR('',#1624,1.);
#478=VECTOR('',#1627,1.);
#479=VECTOR('',#1628,1.);
#480=VECTOR('',#1629,1.);
#481=VECTOR('',#1632,1.);
#482=VECTOR('',#1633,1.);
#483=VECTOR('',#1640,1.);
#484=VECTOR('',#1641,1.);
#485=VECTOR('',#1642,1.);
#486=VECTOR('',#1643,1.);
#487=VECTOR('',#1646,1.);
#488=VECTOR('',#1647,1.);
#489=VECTOR('',#1648,1.);
#490=VECTOR('',#1651,1.);
#491=VECTOR('',#1652,1.);
#492=VECTOR('',#1653,1.);
#493=VECTOR('',#1656,1.);
#494=VECTOR('',#1657,1.);
#495=VECTOR('',#1664,1.);
#496=VECTOR('',#1665,1.);
#497=VECTOR('',#1666,1.);
#498=VECTOR('',#1667,1.);
#499=VECTOR('',#1670,1.);
#500=VECTOR('',#1671,1.);
#501=VECTOR('',#1672,1.);
#502=VECTOR('',#1675,1.);
#503=VECTOR('',#1676,1.);
#504=VECTOR('',#1677,1.);
#505=VECTOR('',#1680,1.);
#506=VECTOR('',#1681,1.);
#507=VECTOR('',#1688,1.);
#508=VECTOR('',#1689,1.);
#509=VECTOR('',#1690,1.);
#510=VECTOR('',#1691,1.);
#511=VECTOR('',#1694,1.);
#512=VECTOR('',#1695,1.);
#513=VECTOR('',#1696,1.);
#514=VECTOR('',#1699,1.);
#515=VECTOR('',#1700,1.);
#516=VECTOR('',#1701,1.);
#517=VECTOR('',#1704,1.);
#518=VECTOR('',#1705,1.);
#519=VECTOR('',#1712,1.);
#520=VECTOR('',#1713,1.);
#521=VECTOR('',#1714,1.);
#522=VECTOR('',#1715,1.);
#523=VECTOR('',#1718,1.);
#524=VECTOR('',#1719,1.);
#525=VECTOR('',#1720,1.);
#526=VECTOR('',#1723,1.);
#527=VECTOR('',#1724,1.);
#528=VECTOR('',#1725,1.);
#529=VECTOR('',#1728,1.);
#530=VECTOR('',#1729,1.);
#531=VECTOR('',#1736,1.);
#532=VECTOR('',#1737,1.);
#533=VECTOR('',#1738,1.);
#534=VECTOR('',#1739,1.);
#535=VECTOR('',#1742,1.);
#536=VECTOR('',#1743,1.);
#537=VECTOR('',#1744,1.);
#538=VECTOR('',#1747,1.);
#539=VECTOR('',#1748,1.);
#540=VECTOR('',#1749,1.);
#541=VECTOR('',#1752,1.);
#542=VECTOR('',#1753,1.);
#543=VECTOR('',#1762,2.5);
#544=VECTOR('',#1773,2.5);
#545=VECTOR('',#1784,2.5);
#546=VERTEX_POINT('',#1793);
#547=VERTEX_POINT('',#1794);
#548=VERTEX_POINT('',#1796);
#549=VERTEX_POINT('',#1798);
#550=VERTEX_POINT('',#1802);
#551=VERTEX_POINT('',#1804);
#552=VERTEX_POINT('',#1808);
#553=VERTEX_POINT('',#1810);
#554=VERTEX_POINT('',#1819);
#555=VERTEX_POINT('',#1820);
#556=VERTEX_POINT('',#1822);
#557=VERTEX_POINT('',#1824);
#558=VERTEX_POINT('',#1828);
#559=VERTEX_POINT('',#1830);
#560=VERTEX_POINT('',#1834);
#561=VERTEX_POINT('',#1836);
#562=VERTEX_POINT('',#1845);
#563=VERTEX_POINT('',#1846);
#564=VERTEX_POINT('',#1848);
#565=VERTEX_POINT('',#1850);
#566=VERTEX_POINT('',#1854);
#567=VERTEX_POINT('',#1856);
#568=VERTEX_POINT('',#1860);
#569=VERTEX_POINT('',#1862);
#570=VERTEX_POINT('',#1871);
#571=VERTEX_POINT('',#1872);
#572=VERTEX_POINT('',#1874);
#573=VERTEX_POINT('',#1876);
#574=VERTEX_POINT('',#1880);
#575=VERTEX_POINT('',#1882);
#576=VERTEX_POINT('',#1886);
#577=VERTEX_POINT('',#1888);
#578=VERTEX_POINT('',#1897);
#579=VERTEX_POINT('',#1898);
#580=VERTEX_POINT('',#1900);
#581=VERTEX_POINT('',#1902);
#582=VERTEX_POINT('',#1906);
#583=VERTEX_POINT('',#1908);
#584=VERTEX_POINT('',#1912);
#585=VERTEX_POINT('',#1914);
#586=VERTEX_POINT('',#1923);
#587=VERTEX_POINT('',#1924);
#588=VERTEX_POINT('',#1926);
#589=VERTEX_POINT('',#1928);
#590=VERTEX_POINT('',#1932);
#591=VERTEX_POINT('',#1934);
#592=VERTEX_POINT('',#1938);
#593=VERTEX_POINT('',#1940);
#594=VERTEX_POINT('',#1949);
#595=VERTEX_POINT('',#1950);
#596=VERTEX_POINT('',#1952);
#597=VERTEX_POINT('',#1954);
#598=VERTEX_POINT('',#1958);
#599=VERTEX_POINT('',#1960);
#600=VERTEX_POINT('',#1964);
#601=VERTEX_POINT('',#1966);
#602=VERTEX_POINT('',#1975);
#603=VERTEX_POINT('',#1976);
#604=VERTEX_POINT('',#1978);
#605=VERTEX_POINT('',#1980);
#606=VERTEX_POINT('',#1984);
#607=VERTEX_POINT('',#1986);
#608=VERTEX_POINT('',#1990);
#609=VERTEX_POINT('',#1992);
#610=VERTEX_POINT('',#2001);
#611=VERTEX_POINT('',#2002);
#612=VERTEX_POINT('',#2004);
#613=VERTEX_POINT('',#2006);
#614=VERTEX_POINT('',#2010);
#615=VERTEX_POINT('',#2012);
#616=VERTEX_POINT('',#2016);
#617=VERTEX_POINT('',#2018);
#618=VERTEX_POINT('',#2027);
#619=VERTEX_POINT('',#2028);
#620=VERTEX_POINT('',#2030);
#621=VERTEX_POINT('',#2032);
#622=VERTEX_POINT('',#2036);
#623=VERTEX_POINT('',#2038);
#624=VERTEX_POINT('',#2042);
#625=VERTEX_POINT('',#2044);
#626=VERTEX_POINT('',#2053);
#627=VERTEX_POINT('',#2054);
#628=VERTEX_POINT('',#2056);
#629=VERTEX_POINT('',#2058);
#630=VERTEX_POINT('',#2062);
#631=VERTEX_POINT('',#2064);
#632=VERTEX_POINT('',#2068);
#633=VERTEX_POINT('',#2070);
#634=VERTEX_POINT('',#2079);
#635=VERTEX_POINT('',#2080);
#636=VERTEX_POINT('',#2082);
#637=VERTEX_POINT('',#2084);
#638=VERTEX_POINT('',#2088);
#639=VERTEX_POINT('',#2090);
#640=VERTEX_POINT('',#2094);
#641=VERTEX_POINT('',#2096);
#642=VERTEX_POINT('',#2105);
#643=VERTEX_POINT('',#2106);
#644=VERTEX_POINT('',#2108);
#645=VERTEX_POINT('',#2110);
#646=VERTEX_POINT('',#2114);
#647=VERTEX_POINT('',#2116);
#648=VERTEX_POINT('',#2120);
#649=VERTEX_POINT('',#2122);
#650=VERTEX_POINT('',#2131);
#651=VERTEX_POINT('',#2133);
#652=VERTEX_POINT('',#2139);
#653=VERTEX_POINT('',#2141);
#654=VERTEX_POINT('',#2147);
#655=VERTEX_POINT('',#2149);
#656=EDGE_CURVE('',#546,#547,#228,.T.);
#657=EDGE_CURVE('',#547,#548,#229,.T.);
#658=EDGE_CURVE('',#549,#548,#230,.T.);
#659=EDGE_CURVE('',#546,#549,#231,.T.);
#660=EDGE_CURVE('',#550,#546,#232,.T.);
#661=EDGE_CURVE('',#551,#549,#233,.T.);
#662=EDGE_CURVE('',#550,#551,#234,.T.);
#663=EDGE_CURVE('',#552,#550,#235,.T.);
#664=EDGE_CURVE('',#553,#551,#236,.T.);
#665=EDGE_CURVE('',#552,#553,#237,.T.);
#666=EDGE_CURVE('',#547,#552,#238,.T.);
#667=EDGE_CURVE('',#548,#553,#239,.T.);
#668=EDGE_CURVE('',#554,#555,#240,.T.);
#669=EDGE_CURVE('',#555,#556,#241,.T.);
#670=EDGE_CURVE('',#557,#556,#242,.T.);
#671=EDGE_CURVE('',#554,#557,#243,.T.);
#672=EDGE_CURVE('',#558,#554,#244,.T.);
#673=EDGE_CURVE('',#559,#557,#245,.T.);
#674=EDGE_CURVE('',#558,#559,#246,.T.);
#675=EDGE_CURVE('',#560,#558,#247,.T.);
#676=EDGE_CURVE('',#561,#559,#248,.T.);
#677=EDGE_CURVE('',#560,#561,#249,.T.);
#678=EDGE_CURVE('',#555,#560,#250,.T.);
#679=EDGE_CURVE('',#556,#561,#251,.T.);
#680=EDGE_CURVE('',#562,#563,#252,.T.);
#681=EDGE_CURVE('',#562,#564,#253,.T.);
#682=EDGE_CURVE('',#565,#564,#254,.T.);
#683=EDGE_CURVE('',#563,#565,#255,.T.);
#684=EDGE_CURVE('',#563,#566,#256,.T.);
#685=EDGE_CURVE('',#567,#565,#257,.T.);
#686=EDGE_CURVE('',#566,#567,#258,.T.);
#687=EDGE_CURVE('',#566,#568,#259,.T.);
#688=EDGE_CURVE('',#569,#567,#260,.T.);
#689=EDGE_CURVE('',#568,#569,#261,.T.);
#690=EDGE_CURVE('',#568,#562,#262,.T.);
#691=EDGE_CURVE('',#564,#569,#263,.T.);
#692=EDGE_CURVE('',#570,#571,#264,.T.);
#693=EDGE_CURVE('',#570,#572,#265,.T.);
#694=EDGE_CURVE('',#573,#572,#266,.T.);
#695=EDGE_CURVE('',#571,#573,#267,.T.);
#696=EDGE_CURVE('',#571,#574,#268,.T.);
#697=EDGE_CURVE('',#575,#573,#269,.T.);
#698=EDGE_CURVE('',#574,#575,#270,.T.);
#699=EDGE_CURVE('',#574,#576,#271,.T.);
#700=EDGE_CURVE('',#577,#575,#272,.T.);
#701=EDGE_CURVE('',#576,#577,#273,.T.);
#702=EDGE_CURVE('',#576,#570,#274,.T.);
#703=EDGE_CURVE('',#572,#577,#275,.T.);
#704=EDGE_CURVE('',#578,#579,#276,.T.);
#705=EDGE_CURVE('',#578,#580,#277,.T.);
#706=EDGE_CURVE('',#581,#580,#278,.T.);
#707=EDGE_CURVE('',#579,#581,#279,.T.);
#708=EDGE_CURVE('',#579,#582,#280,.T.);
#709=EDGE_CURVE('',#583,#581,#281,.T.);
#710=EDGE_CURVE('',#582,#583,#282,.T.);
#711=EDGE_CURVE('',#582,#584,#283,.T.);
#712=EDGE_CURVE('',#585,#583,#284,.T.);
#713=EDGE_CURVE('',#584,#585,#285,.T.);
#714=EDGE_CURVE('',#584,#578,#286,.T.);
#715=EDGE_CURVE('',#580,#585,#287,.T.);
#716=EDGE_CURVE('',#586,#587,#288,.T.);
#717=EDGE_CURVE('',#586,#588,#289,.T.);
#718=EDGE_CURVE('',#589,#588,#290,.T.);
#719=EDGE_CURVE('',#587,#589,#291,.T.);
#720=EDGE_CURVE('',#587,#590,#292,.T.);
#721=EDGE_CURVE('',#591,#589,#293,.T.);
#722=EDGE_CURVE('',#590,#591,#294,.T.);
#723=EDGE_CURVE('',#590,#592,#295,.T.);
#724=EDGE_CURVE('',#593,#591,#296,.T.);
#725=EDGE_CURVE('',#592,#593,#297,.T.);
#726=EDGE_CURVE('',#592,#586,#298,.T.);
#727=EDGE_CURVE('',#588,#593,#299,.T.);
#728=EDGE_CURVE('',#594,#595,#300,.T.);
#729=EDGE_CURVE('',#595,#596,#301,.T.);
#730=EDGE_CURVE('',#597,#596,#302,.T.);
#731=EDGE_CURVE('',#594,#597,#303,.T.);
#732=EDGE_CURVE('',#598,#594,#304,.T.);
#733=EDGE_CURVE('',#599,#597,#305,.T.);
#734=EDGE_CURVE('',#598,#599,#306,.T.);
#735=EDGE_CURVE('',#600,#598,#307,.T.);
#736=EDGE_CURVE('',#601,#599,#308,.T.);
#737=EDGE_CURVE('',#600,#601,#309,.T.);
#738=EDGE_CURVE('',#595,#600,#310,.T.);
#739=EDGE_CURVE('',#596,#601,#311,.T.);
#740=EDGE_CURVE('',#602,#603,#312,.T.);
#741=EDGE_CURVE('',#603,#604,#313,.T.);
#742=EDGE_CURVE('',#605,#604,#314,.T.);
#743=EDGE_CURVE('',#602,#605,#315,.T.);
#744=EDGE_CURVE('',#606,#602,#316,.T.);
#745=EDGE_CURVE('',#607,#605,#317,.T.);
#746=EDGE_CURVE('',#606,#607,#318,.T.);
#747=EDGE_CURVE('',#608,#606,#319,.T.);
#748=EDGE_CURVE('',#609,#607,#320,.T.);
#749=EDGE_CURVE('',#608,#609,#321,.T.);
#750=EDGE_CURVE('',#603,#608,#322,.T.);
#751=EDGE_CURVE('',#604,#609,#323,.T.);
#752=EDGE_CURVE('',#610,#611,#324,.T.);
#753=EDGE_CURVE('',#611,#612,#325,.T.);
#754=EDGE_CURVE('',#613,#612,#326,.T.);
#755=EDGE_CURVE('',#610,#613,#327,.T.);
#756=EDGE_CURVE('',#614,#610,#328,.T.);
#757=EDGE_CURVE('',#615,#613,#329,.T.);
#758=EDGE_CURVE('',#614,#615,#330,.T.);
#759=EDGE_CURVE('',#616,#614,#331,.T.);
#760=EDGE_CURVE('',#617,#615,#332,.T.);
#761=EDGE_CURVE('',#616,#617,#333,.T.);
#762=EDGE_CURVE('',#611,#616,#334,.T.);
#763=EDGE_CURVE('',#612,#617,#335,.T.);
#764=EDGE_CURVE('',#618,#619,#336,.T.);
#765=EDGE_CURVE('',#619,#620,#337,.T.);
#766=EDGE_CURVE('',#621,#620,#338,.T.);
#767=EDGE_CURVE('',#618,#621,#339,.T.);
#768=EDGE_CURVE('',#622,#618,#340,.T.);
#769=EDGE_CURVE('',#623,#621,#341,.T.);
#770=EDGE_CURVE('',#622,#623,#342,.T.);
#771=EDGE_CURVE('',#624,#622,#343,.T.);
#772=EDGE_CURVE('',#625,#623,#344,.T.);
#773=EDGE_CURVE('',#624,#625,#345,.T.);
#774=EDGE_CURVE('',#619,#624,#346,.T.);
#775=EDGE_CURVE('',#620,#625,#347,.T.);
#776=EDGE_CURVE('',#626,#627,#348,.T.);
#777=EDGE_CURVE('',#627,#628,#349,.T.);
#778=EDGE_CURVE('',#629,#628,#350,.T.);
#779=EDGE_CURVE('',#626,#629,#351,.T.);
#780=EDGE_CURVE('',#630,#626,#352,.T.);
#781=EDGE_CURVE('',#631,#629,#353,.T.);
#782=EDGE_CURVE('',#630,#631,#354,.T.);
#783=EDGE_CURVE('',#632,#630,#355,.T.);
#784=EDGE_CURVE('',#633,#631,#356,.T.);
#785=EDGE_CURVE('',#632,#633,#357,.T.);
#786=EDGE_CURVE('',#627,#632,#358,.T.);
#787=EDGE_CURVE('',#628,#633,#359,.T.);
#788=EDGE_CURVE('',#634,#635,#360,.T.);
#789=EDGE_CURVE('',#635,#636,#361,.T.);
#790=EDGE_CURVE('',#637,#636,#362,.T.);
#791=EDGE_CURVE('',#634,#637,#363,.T.);
#792=EDGE_CURVE('',#638,#634,#364,.T.);
#793=EDGE_CURVE('',#639,#637,#365,.T.);
#794=EDGE_CURVE('',#638,#639,#366,.T.);
#795=EDGE_CURVE('',#640,#638,#367,.T.);
#796=EDGE_CURVE('',#641,#639,#368,.T.);
#797=EDGE_CURVE('',#640,#641,#369,.T.);
#798=EDGE_CURVE('',#635,#640,#370,.T.);
#799=EDGE_CURVE('',#636,#641,#371,.T.);
#800=EDGE_CURVE('',#642,#643,#372,.T.);
#801=EDGE_CURVE('',#643,#644,#373,.T.);
#802=EDGE_CURVE('',#645,#644,#374,.T.);
#803=EDGE_CURVE('',#642,#645,#375,.T.);
#804=EDGE_CURVE('',#646,#642,#376,.T.);
#805=EDGE_CURVE('',#647,#645,#377,.T.);
#806=EDGE_CURVE('',#646,#647,#378,.T.);
#807=EDGE_CURVE('',#648,#646,#379,.T.);
#808=EDGE_CURVE('',#649,#647,#380,.T.);
#809=EDGE_CURVE('',#648,#649,#381,.T.);
#810=EDGE_CURVE('',#643,#648,#382,.T.);
#811=EDGE_CURVE('',#644,#649,#383,.T.);
#812=EDGE_CURVE('',#650,#650,#13,.T.);
#813=EDGE_CURVE('',#650,#651,#384,.T.);
#814=EDGE_CURVE('',#651,#651,#14,.T.);
#815=EDGE_CURVE('',#652,#652,#15,.T.);
#816=EDGE_CURVE('',#652,#653,#385,.T.);
#817=EDGE_CURVE('',#653,#653,#16,.T.);
#818=EDGE_CURVE('',#654,#654,#17,.T.);
#819=EDGE_CURVE('',#654,#655,#386,.T.);
#820=EDGE_CURVE('',#655,#655,#18,.T.);
#821=ORIENTED_EDGE('',*,*,#656,.T.);
#822=ORIENTED_EDGE('',*,*,#657,.T.);
#823=ORIENTED_EDGE('',*,*,#658,.F.);
#824=ORIENTED_EDGE('',*,*,#659,.F.);
#825=ORIENTED_EDGE('',*,*,#660,.T.);
#826=ORIENTED_EDGE('',*,*,#659,.T.);
#827=ORIENTED_EDGE('',*,*,#661,.F.);
#828=ORIENTED_EDGE('',*,*,#662,.F.);
#829=ORIENTED_EDGE('',*,*,#663,.T.);
#830=ORIENTED_EDGE('',*,*,#662,.T.);
#831=ORIENTED_EDGE('',*,*,#664,.F.);
#832=ORIENTED_EDGE('',*,*,#665,.F.);
#833=ORIENTED_EDGE('',*,*,#666,.T.);
#834=ORIENTED_EDGE('',*,*,#665,.T.);
#835=ORIENTED_EDGE('',*,*,#667,.F.);
#836=ORIENTED_EDGE('',*,*,#657,.F.);
#837=ORIENTED_EDGE('',*,*,#667,.T.);
#838=ORIENTED_EDGE('',*,*,#664,.T.);
#839=ORIENTED_EDGE('',*,*,#661,.T.);
#840=ORIENTED_EDGE('',*,*,#658,.T.);
#841=ORIENTED_EDGE('',*,*,#666,.F.);
#842=ORIENTED_EDGE('',*,*,#656,.F.);
#843=ORIENTED_EDGE('',*,*,#660,.F.);
#844=ORIENTED_EDGE('',*,*,#663,.F.);
#845=ORIENTED_EDGE('',*,*,#668,.T.);
#846=ORIENTED_EDGE('',*,*,#669,.T.);
#847=ORIENTED_EDGE('',*,*,#670,.F.);
#848=ORIENTED_EDGE('',*,*,#671,.F.);
#849=ORIENTED_EDGE('',*,*,#672,.T.);
#850=ORIENTED_EDGE('',*,*,#671,.T.);
#851=ORIENTED_EDGE('',*,*,#673,.F.);
#852=ORIENTED_EDGE('',*,*,#674,.F.);
#853=ORIENTED_EDGE('',*,*,#675,.T.);
#854=ORIENTED_EDGE('',*,*,#674,.T.);
#855=ORIENTED_EDGE('',*,*,#676,.F.);
#856=ORIENTED_EDGE('',*,*,#677,.F.);
#857=ORIENTED_EDGE('',*,*,#678,.T.);
#858=ORIENTED_EDGE('',*,*,#677,.T.);
#859=ORIENTED_EDGE('',*,*,#679,.F.);
#860=ORIENTED_EDGE('',*,*,#669,.F.);
#861=ORIENTED_EDGE('',*,*,#679,.T.);
#862=ORIENTED_EDGE('',*,*,#676,.T.);
#863=ORIENTED_EDGE('',*,*,#673,.T.);
#864=ORIENTED_EDGE('',*,*,#670,.T.);
#865=ORIENTED_EDGE('',*,*,#678,.F.);
#866=ORIENTED_EDGE('',*,*,#668,.F.);
#867=ORIENTED_EDGE('',*,*,#672,.F.);
#868=ORIENTED_EDGE('',*,*,#675,.F.);
#869=ORIENTED_EDGE('',*,*,#680,.F.);
#870=ORIENTED_EDGE('',*,*,#681,.T.);
#871=ORIENTED_EDGE('',*,*,#682,.F.);
#872=ORIENTED_EDGE('',*,*,#683,.F.);
#873=ORIENTED_EDGE('',*,*,#684,.F.);
#874=ORIENTED_EDGE('',*,*,#683,.T.);
#875=ORIENTED_EDGE('',*,*,#685,.F.);
#876=ORIENTED_EDGE('',*,*,#686,.F.);
#877=ORIENTED_EDGE('',*,*,#687,.F.);
#878=ORIENTED_EDGE('',*,*,#686,.T.);
#879=ORIENTED_EDGE('',*,*,#688,.F.);
#880=ORIENTED_EDGE('',*,*,#689,.F.);
#881=ORIENTED_EDGE('',*,*,#690,.F.);
#882=ORIENTED_EDGE('',*,*,#689,.T.);
#883=ORIENTED_EDGE('',*,*,#691,.F.);
#884=ORIENTED_EDGE('',*,*,#681,.F.);
#885=ORIENTED_EDGE('',*,*,#691,.T.);
#886=ORIENTED_EDGE('',*,*,#688,.T.);
#887=ORIENTED_EDGE('',*,*,#685,.T.);
#888=ORIENTED_EDGE('',*,*,#682,.T.);
#889=ORIENTED_EDGE('',*,*,#690,.T.);
#890=ORIENTED_EDGE('',*,*,#680,.T.);
#891=ORIENTED_EDGE('',*,*,#684,.T.);
#892=ORIENTED_EDGE('',*,*,#687,.T.);
#893=ORIENTED_EDGE('',*,*,#692,.F.);
#894=ORIENTED_EDGE('',*,*,#693,.T.);
#895=ORIENTED_EDGE('',*,*,#694,.F.);
#896=ORIENTED_EDGE('',*,*,#695,.F.);
#897=ORIENTED_EDGE('',*,*,#696,.F.);
#898=ORIENTED_EDGE('',*,*,#695,.T.);
#899=ORIENTED_EDGE('',*,*,#697,.F.);
#900=ORIENTED_EDGE('',*,*,#698,.F.);
#901=ORIENTED_EDGE('',*,*,#699,.F.);
#902=ORIENTED_EDGE('',*,*,#698,.T.);
#903=ORIENTED_EDGE('',*,*,#700,.F.);
#904=ORIENTED_EDGE('',*,*,#701,.F.);
#905=ORIENTED_EDGE('',*,*,#702,.F.);
#906=ORIENTED_EDGE('',*,*,#701,.T.);
#907=ORIENTED_EDGE('',*,*,#703,.F.);
#908=ORIENTED_EDGE('',*,*,#693,.F.);
#909=ORIENTED_EDGE('',*,*,#703,.T.);
#910=ORIENTED_EDGE('',*,*,#700,.T.);
#911=ORIENTED_EDGE('',*,*,#697,.T.);
#912=ORIENTED_EDGE('',*,*,#694,.T.);
#913=ORIENTED_EDGE('',*,*,#702,.T.);
#914=ORIENTED_EDGE('',*,*,#692,.T.);
#915=ORIENTED_EDGE('',*,*,#696,.T.);
#916=ORIENTED_EDGE('',*,*,#699,.T.);
#917=ORIENTED_EDGE('',*,*,#704,.F.);
#918=ORIENTED_EDGE('',*,*,#705,.T.);
#919=ORIENTED_EDGE('',*,*,#706,.F.);
#920=ORIENTED_EDGE('',*,*,#707,.F.);
#921=ORIENTED_EDGE('',*,*,#708,.F.);
#922=ORIENTED_EDGE('',*,*,#707,.T.);
#923=ORIENTED_EDGE('',*,*,#709,.F.);
#924=ORIENTED_EDGE('',*,*,#710,.F.);
#925=ORIENTED_EDGE('',*,*,#711,.F.);
#926=ORIENTED_EDGE('',*,*,#710,.T.);
#927=ORIENTED_EDGE('',*,*,#712,.F.);
#928=ORIENTED_EDGE('',*,*,#713,.F.);
#929=ORIENTED_EDGE('',*,*,#714,.F.);
#930=ORIENTED_EDGE('',*,*,#713,.T.);
#931=ORIENTED_EDGE('',*,*,#715,.F.);
#932=ORIENTED_EDGE('',*,*,#705,.F.);
#933=ORIENTED_EDGE('',*,*,#715,.T.);
#934=ORIENTED_EDGE('',*,*,#712,.T.);
#935=ORIENTED_EDGE('',*,*,#709,.T.);
#936=ORIENTED_EDGE('',*,*,#706,.T.);
#937=ORIENTED_EDGE('',*,*,#714,.T.);
#938=ORIENTED_EDGE('',*,*,#704,.T.);
#939=ORIENTED_EDGE('',*,*,#708,.T.);
#940=ORIENTED_EDGE('',*,*,#711,.T.);
#941=ORIENTED_EDGE('',*,*,#716,.F.);
#942=ORIENTED_EDGE('',*,*,#717,.T.);
#943=ORIENTED_EDGE('',*,*,#718,.F.);
#944=ORIENTED_EDGE('',*,*,#719,.F.);
#945=ORIENTED_EDGE('',*,*,#720,.F.);
#946=ORIENTED_EDGE('',*,*,#719,.T.);
#947=ORIENTED_EDGE('',*,*,#721,.F.);
#948=ORIENTED_EDGE('',*,*,#722,.F.);
#949=ORIENTED_EDGE('',*,*,#723,.F.);
#950=ORIENTED_EDGE('',*,*,#722,.T.);
#951=ORIENTED_EDGE('',*,*,#724,.F.);
#952=ORIENTED_EDGE('',*,*,#725,.F.);
#953=ORIENTED_EDGE('',*,*,#726,.F.);
#954=ORIENTED_EDGE('',*,*,#725,.T.);
#955=ORIENTED_EDGE('',*,*,#727,.F.);
#956=ORIENTED_EDGE('',*,*,#717,.F.);
#957=ORIENTED_EDGE('',*,*,#727,.T.);
#958=ORIENTED_EDGE('',*,*,#724,.T.);
#959=ORIENTED_EDGE('',*,*,#721,.T.);
#960=ORIENTED_EDGE('',*,*,#718,.T.);
#961=ORIENTED_EDGE('',*,*,#726,.T.);
#962=ORIENTED_EDGE('',*,*,#716,.T.);
#963=ORIENTED_EDGE('',*,*,#720,.T.);
#964=ORIENTED_EDGE('',*,*,#723,.T.);
#965=ORIENTED_EDGE('',*,*,#728,.T.);
#966=ORIENTED_EDGE('',*,*,#729,.T.);
#967=ORIENTED_EDGE('',*,*,#730,.F.);
#968=ORIENTED_EDGE('',*,*,#731,.F.);
#969=ORIENTED_EDGE('',*,*,#732,.T.);
#970=ORIENTED_EDGE('',*,*,#731,.T.);
#971=ORIENTED_EDGE('',*,*,#733,.F.);
#972=ORIENTED_EDGE('',*,*,#734,.F.);
#973=ORIENTED_EDGE('',*,*,#735,.T.);
#974=ORIENTED_EDGE('',*,*,#734,.T.);
#975=ORIENTED_EDGE('',*,*,#736,.F.);
#976=ORIENTED_EDGE('',*,*,#737,.F.);
#977=ORIENTED_EDGE('',*,*,#738,.T.);
#978=ORIENTED_EDGE('',*,*,#737,.T.);
#979=ORIENTED_EDGE('',*,*,#739,.F.);
#980=ORIENTED_EDGE('',*,*,#729,.F.);
#981=ORIENTED_EDGE('',*,*,#739,.T.);
#982=ORIENTED_EDGE('',*,*,#736,.T.);
#983=ORIENTED_EDGE('',*,*,#733,.T.);
#984=ORIENTED_EDGE('',*,*,#730,.T.);
#985=ORIENTED_EDGE('',*,*,#738,.F.);
#986=ORIENTED_EDGE('',*,*,#728,.F.);
#987=ORIENTED_EDGE('',*,*,#732,.F.);
#988=ORIENTED_EDGE('',*,*,#735,.F.);
#989=ORIENTED_EDGE('',*,*,#740,.T.);
#990=ORIENTED_EDGE('',*,*,#741,.T.);
#991=ORIENTED_EDGE('',*,*,#742,.F.);
#992=ORIENTED_EDGE('',*,*,#743,.F.);
#993=ORIENTED_EDGE('',*,*,#744,.T.);
#994=ORIENTED_EDGE('',*,*,#743,.T.);
#995=ORIENTED_EDGE('',*,*,#745,.F.);
#996=ORIENTED_EDGE('',*,*,#746,.F.);
#997=ORIENTED_EDGE('',*,*,#747,.T.);
#998=ORIENTED_EDGE('',*,*,#746,.T.);
#999=ORIENTED_EDGE('',*,*,#748,.F.);
#1000=ORIENTED_EDGE('',*,*,#749,.F.);
#1001=ORIENTED_EDGE('',*,*,#750,.T.);
#1002=ORIENTED_EDGE('',*,*,#749,.T.);
#1003=ORIENTED_EDGE('',*,*,#751,.F.);
#1004=ORIENTED_EDGE('',*,*,#741,.F.);
#1005=ORIENTED_EDGE('',*,*,#751,.T.);
#1006=ORIENTED_EDGE('',*,*,#748,.T.);
#1007=ORIENTED_EDGE('',*,*,#745,.T.);
#1008=ORIENTED_EDGE('',*,*,#742,.T.);
#1009=ORIENTED_EDGE('',*,*,#750,.F.);
#1010=ORIENTED_EDGE('',*,*,#740,.F.);
#1011=ORIENTED_EDGE('',*,*,#744,.F.);
#1012=ORIENTED_EDGE('',*,*,#747,.F.);
#1013=ORIENTED_EDGE('',*,*,#752,.T.);
#1014=ORIENTED_EDGE('',*,*,#753,.T.);
#1015=ORIENTED_EDGE('',*,*,#754,.F.);
#1016=ORIENTED_EDGE('',*,*,#755,.F.);
#1017=ORIENTED_EDGE('',*,*,#756,.T.);
#1018=ORIENTED_EDGE('',*,*,#755,.T.);
#1019=ORIENTED_EDGE('',*,*,#757,.F.);
#1020=ORIENTED_EDGE('',*,*,#758,.F.);
#1021=ORIENTED_EDGE('',*,*,#759,.T.);
#1022=ORIENTED_EDGE('',*,*,#758,.T.);
#1023=ORIENTED_EDGE('',*,*,#760,.F.);
#1024=ORIENTED_EDGE('',*,*,#761,.F.);
#1025=ORIENTED_EDGE('',*,*,#762,.T.);
#1026=ORIENTED_EDGE('',*,*,#761,.T.);
#1027=ORIENTED_EDGE('',*,*,#763,.F.);
#1028=ORIENTED_EDGE('',*,*,#753,.F.);
#1029=ORIENTED_EDGE('',*,*,#763,.T.);
#1030=ORIENTED_EDGE('',*,*,#760,.T.);
#1031=ORIENTED_EDGE('',*,*,#757,.T.);
#1032=ORIENTED_EDGE('',*,*,#754,.T.);
#1033=ORIENTED_EDGE('',*,*,#762,.F.);
#1034=ORIENTED_EDGE('',*,*,#752,.F.);
#1035=ORIENTED_EDGE('',*,*,#756,.F.);
#1036=ORIENTED_EDGE('',*,*,#759,.F.);
#1037=ORIENTED_EDGE('',*,*,#764,.T.);
#1038=ORIENTED_EDGE('',*,*,#765,.T.);
#1039=ORIENTED_EDGE('',*,*,#766,.F.);
#1040=ORIENTED_EDGE('',*,*,#767,.F.);
#1041=ORIENTED_EDGE('',*,*,#768,.T.);
#1042=ORIENTED_EDGE('',*,*,#767,.T.);
#1043=ORIENTED_EDGE('',*,*,#769,.F.);
#1044=ORIENTED_EDGE('',*,*,#770,.F.);
#1045=ORIENTED_EDGE('',*,*,#771,.T.);
#1046=ORIENTED_EDGE('',*,*,#770,.T.);
#1047=ORIENTED_EDGE('',*,*,#772,.F.);
#1048=ORIENTED_EDGE('',*,*,#773,.F.);
#1049=ORIENTED_EDGE('',*,*,#774,.T.);
#1050=ORIENTED_EDGE('',*,*,#773,.T.);
#1051=ORIENTED_EDGE('',*,*,#775,.F.);
#1052=ORIENTED_EDGE('',*,*,#765,.F.);
#1053=ORIENTED_EDGE('',*,*,#775,.T.);
#1054=ORIENTED_EDGE('',*,*,#772,.T.);
#1055=ORIENTED_EDGE('',*,*,#769,.T.);
#1056=ORIENTED_EDGE('',*,*,#766,.T.);
#1057=ORIENTED_EDGE('',*,*,#774,.F.);
#1058=ORIENTED_EDGE('',*,*,#764,.F.);
#1059=ORIENTED_EDGE('',*,*,#768,.F.);
#1060=ORIENTED_EDGE('',*,*,#771,.F.);
#1061=ORIENTED_EDGE('',*,*,#776,.T.);
#1062=ORIENTED_EDGE('',*,*,#777,.T.);
#1063=ORIENTED_EDGE('',*,*,#778,.F.);
#1064=ORIENTED_EDGE('',*,*,#779,.F.);
#1065=ORIENTED_EDGE('',*,*,#780,.T.);
#1066=ORIENTED_EDGE('',*,*,#779,.T.);
#1067=ORIENTED_EDGE('',*,*,#781,.F.);
#1068=ORIENTED_EDGE('',*,*,#782,.F.);
#1069=ORIENTED_EDGE('',*,*,#783,.T.);
#1070=ORIENTED_EDGE('',*,*,#782,.T.);
#1071=ORIENTED_EDGE('',*,*,#784,.F.);
#1072=ORIENTED_EDGE('',*,*,#785,.F.);
#1073=ORIENTED_EDGE('',*,*,#786,.T.);
#1074=ORIENTED_EDGE('',*,*,#785,.T.);
#1075=ORIENTED_EDGE('',*,*,#787,.F.);
#1076=ORIENTED_EDGE('',*,*,#777,.F.);
#1077=ORIENTED_EDGE('',*,*,#787,.T.);
#1078=ORIENTED_EDGE('',*,*,#784,.T.);
#1079=ORIENTED_EDGE('',*,*,#781,.T.);
#1080=ORIENTED_EDGE('',*,*,#778,.T.);
#1081=ORIENTED_EDGE('',*,*,#786,.F.);
#1082=ORIENTED_EDGE('',*,*,#776,.F.);
#1083=ORIENTED_EDGE('',*,*,#780,.F.);
#1084=ORIENTED_EDGE('',*,*,#783,.F.);
#1085=ORIENTED_EDGE('',*,*,#788,.T.);
#1086=ORIENTED_EDGE('',*,*,#789,.T.);
#1087=ORIENTED_EDGE('',*,*,#790,.F.);
#1088=ORIENTED_EDGE('',*,*,#791,.F.);
#1089=ORIENTED_EDGE('',*,*,#792,.T.);
#1090=ORIENTED_EDGE('',*,*,#791,.T.);
#1091=ORIENTED_EDGE('',*,*,#793,.F.);
#1092=ORIENTED_EDGE('',*,*,#794,.F.);
#1093=ORIENTED_EDGE('',*,*,#795,.T.);
#1094=ORIENTED_EDGE('',*,*,#794,.T.);
#1095=ORIENTED_EDGE('',*,*,#796,.F.);
#1096=ORIENTED_EDGE('',*,*,#797,.F.);
#1097=ORIENTED_EDGE('',*,*,#798,.T.);
#1098=ORIENTED_EDGE('',*,*,#797,.T.);
#1099=ORIENTED_EDGE('',*,*,#799,.F.);
#1100=ORIENTED_EDGE('',*,*,#789,.F.);
#1101=ORIENTED_EDGE('',*,*,#799,.T.);
#1102=ORIENTED_EDGE('',*,*,#796,.T.);
#1103=ORIENTED_EDGE('',*,*,#793,.T.);
#1104=ORIENTED_EDGE('',*,*,#790,.T.);
#1105=ORIENTED_EDGE('',*,*,#798,.F.);
#1106=ORIENTED_EDGE('',*,*,#788,.F.);
#1107=ORIENTED_EDGE('',*,*,#792,.F.);
#1108=ORIENTED_EDGE('',*,*,#795,.F.);
#1109=ORIENTED_EDGE('',*,*,#800,.T.);
#1110=ORIENTED_EDGE('',*,*,#801,.T.);
#1111=ORIENTED_EDGE('',*,*,#802,.F.);
#1112=ORIENTED_EDGE('',*,*,#803,.F.);
#1113=ORIENTED_EDGE('',*,*,#804,.T.);
#1114=ORIENTED_EDGE('',*,*,#803,.T.);
#1115=ORIENTED_EDGE('',*,*,#805,.F.);
#1116=ORIENTED_EDGE('',*,*,#806,.F.);
#1117=ORIENTED_EDGE('',*,*,#807,.T.);
#1118=ORIENTED_EDGE('',*,*,#806,.T.);
#1119=ORIENTED_EDGE('',*,*,#808,.F.);
#1120=ORIENTED_EDGE('',*,*,#809,.F.);
#1121=ORIENTED_EDGE('',*,*,#810,.T.);
#1122=ORIENTED_EDGE('',*,*,#809,.T.);
#1123=ORIENTED_EDGE('',*,*,#811,.F.);
#1124=ORIENTED_EDGE('',*,*,#801,.F.);
#1125=ORIENTED_EDGE('',*,*,#811,.T.);
#1126=ORIENTED_EDGE('',*,*,#808,.T.);
#1127=ORIENTED_EDGE('',*,*,#805,.T.);
#1128=ORIENTED_EDGE('',*,*,#802,.T.);
#1129=ORIENTED_EDGE('',*,*,#810,.F.);
#1130=ORIENTED_EDGE('',*,*,#800,.F.);
#1131=ORIENTED_EDGE('',*,*,#804,.F.);
#1132=ORIENTED_EDGE('',*,*,#807,.F.);
#1133=ORIENTED_EDGE('',*,*,#812,.F.);
#1134=ORIENTED_EDGE('',*,*,#813,.T.);
#1135=ORIENTED_EDGE('',*,*,#814,.T.);
#1136=ORIENTED_EDGE('',*,*,#813,.F.);
#1137=ORIENTED_EDGE('',*,*,#812,.T.);
#1138=ORIENTED_EDGE('',*,*,#814,.F.);
#1139=ORIENTED_EDGE('',*,*,#815,.F.);
#1140=ORIENTED_EDGE('',*,*,#816,.T.);
#1141=ORIENTED_EDGE('',*,*,#817,.T.);
#1142=ORIENTED_EDGE('',*,*,#816,.F.);
#1143=ORIENTED_EDGE('',*,*,#815,.T.);
#1144=ORIENTED_EDGE('',*,*,#817,.F.);
#1145=ORIENTED_EDGE('',*,*,#818,.F.);
#1146=ORIENTED_EDGE('',*,*,#819,.T.);
#1147=ORIENTED_EDGE('',*,*,#820,.T.);
#1148=ORIENTED_EDGE('',*,*,#819,.F.);
#1149=ORIENTED_EDGE('',*,*,#818,.T.);
#1150=ORIENTED_EDGE('',*,*,#820,.F.);
#1151=PLANE('',#1351);
#1152=PLANE('',#1352);
#1153=PLANE('',#1353);
#1154=PLANE('',#1354);
#1155=PLANE('',#1355);
#1156=PLANE('',#1356);
#1157=PLANE('',#1357);
#1158=PLANE('',#1358);
#1159=PLANE('',#1359);
#1160=PLANE('',#1360);
#1161=PLANE('',#1361);
#1162=PLANE('',#1362);
#1163=PLANE('',#1363);
#1164=PLANE('',#1364);
#1165=PLANE('',#1365);
#1166=PLANE('',#1366);
#1167=PLANE('',#1367);
#1168=PLANE('',#1368);
#1169=PLANE('',#1369);
#1170=PLANE('',#1370);
#1171=PLANE('',#1371);
#1172=PLANE('',#1372);
#1173=PLANE('',#1373);
#1174=PLANE('',#1374);
#1175=PLANE('',#1375);
#1176=PLANE('',#1376);
#1177=PLANE('',#1377);
#1178=PLANE('',#1378);
#1179=PLANE('',#1379);
#1180=PLANE('',#1380);
#1181=PLANE('',#1381);
#1182=PLANE('',#1382);
#1183=PLANE('',#1383);
#1184=PLANE('',#1384);
#1185=PLANE('',#1385);
#1186=PLANE('',#1386);
#1187=PLANE('',#1387);
#1188=PLANE('',#1388);
#1189=PLANE('',#1389);
#1190=PLANE('',#1390);
#1191=PLANE('',#1391);
#1192=PLANE('',#1392);
#1193=PLANE('',#1393);
#1194=PLANE('',#1394);
#1195=PLANE('',#1395);
#1196=PLANE('',#1396);
#1197=PLANE('',#1397);
#1198=PLANE('',#1398);
#1199=PLANE('',#1399);
#1200=PLANE('',#1400);
#1201=PLANE('',#1401);
#1202=PLANE('',#1402);
#1203=PLANE('',#1403);
#1204=PLANE('',#1404);
#1205=PLANE('',#1405);
#1206=PLANE('',#1406);
#1207=PLANE('',#1407);
#1208=PLANE('',#1408);
#1209=PLANE('',#1409);
#1210=PLANE('',#1410);
#1211=PLANE('',#1411);
#1212=PLANE('',#1412);
#1213=PLANE('',#1413);
#1214=PLANE('',#1414);
#1215=PLANE('',#1415);
#1216=PLANE('',#1416);
#1217=PLANE('',#1417);
#1218=PLANE('',#1418);
#1219=PLANE('',#1419);
#1220=PLANE('',#1420);
#1221=PLANE('',#1421);
#1222=PLANE('',#1422);
#1223=PLANE('',#1423);
#1224=PLANE('',#1424);
#1225=PLANE('',#1425);
#1226=PLANE('',#1426);
#1227=PLANE('',#1427);
#1228=PLANE('',#1428);
#1229=PLANE('',#1432);
#1230=PLANE('',#1433);
#1231=PLANE('',#1437);
#1232=PLANE('',#1438);
#1233=PLANE('',#1442);
#1234=PLANE('',#1443);
#1235=ADVANCED_FACE('',(#54),#1151,.T.);
#1236=ADVANCED_FACE('',(#55),#1152,.T.);
#1237=ADVANCED_FACE('',(#56),#1153,.T.);
#1238=ADVANCED_FACE('',(#57),#1154,.T.);
#1239=ADVANCED_FACE('',(#58),#1155,.T.);
#1240=ADVANCED_FACE('',(#59),#1156,.F.);
#1241=ADVANCED_FACE('',(#60),#1157,.T.);
#1242=ADVANCED_FACE('',(#61),#1158,.T.);
#1243=ADVANCED_FACE('',(#62),#1159,.T.);
#1244=ADVANCED_FACE('',(#63),#1160,.T.);
#1245=ADVANCED_FACE('',(#64),#1161,.T.);
#1246=ADVANCED_FACE('',(#65),#1162,.F.);
#1247=ADVANCED_FACE('',(#66),#1163,.T.);
#1248=ADVANCED_FACE('',(#67),#1164,.T.);
#1249=ADVANCED_FACE('',(#68),#1165,.T.);
#1250=ADVANCED_FACE('',(#69),#1166,.T.);
#1251=ADVANCED_FACE('',(#70),#1167,.T.);
#1252=ADVANCED_FACE('',(#71),#1168,.F.);
#1253=ADVANCED_FACE('',(#72),#1169,.T.);
#1254=ADVANCED_FACE('',(#73),#1170,.T.);
#1255=ADVANCED_FACE('',(#74),#1171,.T.);
#1256=ADVANCED_FACE('',(#75),#1172,.T.);
#1257=ADVANCED_FACE('',(#76),#1173,.T.);
#1258=ADVANCED_FACE('',(#77),#1174,.F.);
#1259=ADVANCED_FACE('',(#78),#1175,.T.);
#1260=ADVANCED_FACE('',(#79),#1176,.T.);
#1261=ADVANCED_FACE('',(#80),#1177,.T.);
#1262=ADVANCED_FACE('',(#81),#1178,.T.);
#1263=ADVANCED_FACE('',(#82),#1179,.T.);
#1264=ADVANCED_FACE('',(#83),#1180,.F.);
#1265=ADVANCED_FACE('',(#84),#1181,.T.);
#1266=ADVANCED_FACE('',(#85),#1182,.T.);
#1267=ADVANCED_FACE('',(#86),#1183,.T.);
#1268=ADVANCED_FACE('',(#87),#1184,.T.);
#1269=ADVANCED_FACE('',(#88),#1185,.T.);
#1270=ADVANCED_FACE('',(#89),#1186,.F.);
#1271=ADVANCED_FACE('',(#90),#1187,.T.);
#1272=ADVANCED_FACE('',(#91),#1188,.T.);
#1273=ADVANCED_FACE('',(#92),#1189,.T.);
#1274=ADVANCED_FACE('',(#93),#1190,.T.);
#1275=ADVANCED_FACE('',(#94),#1191,.T.);
#1276=ADVANCED_FACE('',(#95),#1192,.F.);
#1277=ADVANCED_FACE('',(#96),#1193,.T.);
#1278=ADVANCED_FACE('',(#97),#1194,.T.);
#1279=ADVANCED_FACE('',(#98),#1195,.T.);
#1280=ADVANCED_FACE('',(#99),#1196,.T.);
#1281=ADVANCED_FACE('',(#100),#1197,.T.);
#1282=ADVANCED_FACE('',(#101),#1198,.F.);
#1283=ADVANCED_FACE('',(#102),#1199,.T.);
#1284=ADVANCED_FACE('',(#103),#1200,.T.);
#1285=ADVANCED_FACE('',(#104),#1201,.T.);
#1286=ADVANCED_FACE('',(#105),#1202,.T.);
#1287=ADVANCED_FACE('',(#106),#1203,.T.);
#1288=ADVANCED_FACE('',(#107),#1204,.F.);
#1289=ADVANCED_FACE('',(#108),#1205,.T.);
#1290=ADVANCED_FACE('',(#109),#1206,.T.);
#1291=ADVANCED_FACE('',(#110),#1207,.T.);
#1292=ADVANCED_FACE('',(#111),#1208,.T.);
#1293=ADVANCED_FACE('',(#112),#1209,.T.);
#1294=ADVANCED_FACE('',(#113),#1210,.F.);
#1295=ADVANCED_FACE('',(#114),#1211,.T.);
#1296=ADVANCED_FACE('',(#115),#1212,.T.);
#1297=ADVANCED_FACE('',(#116),#1213,.T.);
#1298=ADVANCED_FACE('',(#117),#1214,.T.);
#1299=ADVANCED_FACE('',(#118),#1215,.T.);
#1300=ADVANCED_FACE('',(#119),#1216,.F.);
#1301=ADVANCED_FACE('',(#120),#1217,.T.);
#1302=ADVANCED_FACE('',(#121),#1218,.T.);
#1303=ADVANCED_FACE('',(#122),#1219,.T.);
#1304=ADVANCED_FACE('',(#123),#1220,.T.);
#1305=ADVANCED_FACE('',(#124),#1221,.T.);
#1306=ADVANCED_FACE('',(#125),#1222,.F.);
#1307=ADVANCED_FACE('',(#126),#1223,.T.);
#1308=ADVANCED_FACE('',(#127),#1224,.T.);
#1309=ADVANCED_FACE('',(#128),#1225,.T.);
#1310=ADVANCED_FACE('',(#129),#1226,.T.);
#1311=ADVANCED_FACE('',(#130),#1227,.T.);
#1312=ADVANCED_FACE('',(#131),#1228,.F.);
#1313=ADVANCED_FACE('',(#132),#19,.T.);
#1314=ADVANCED_FACE('',(#133),#1229,.T.);
#1315=ADVANCED_FACE('',(#134),#1230,.F.);
#1316=ADVANCED_FACE('',(#135),#20,.T.);
#1317=ADVANCED_FACE('',(#136),#1231,.T.);
#1318=ADVANCED_FACE('',(#137),#1232,.F.);
#1319=ADVANCED_FACE('',(#138),#21,.T.);
#1320=ADVANCED_FACE('',(#139),#1233,.T.);
#1321=ADVANCED_FACE('',(#140),#1234,.F.);
#1322=CLOSED_SHELL('',(#1235,#1236,#1237,#1238,#1239,#1240));
#1323=CLOSED_SHELL('',(#1241,#1242,#1243,#1244,#1245,#1246));
#1324=CLOSED_SHELL('',(#1247,#1248,#1249,#1250,#1251,#1252));
#1325=CLOSED_SHELL('',(#1253,#1254,#1255,#1256,#1257,#1258));
#1326=CLOSED_SHELL('',(#1259,#1260,#1261,#1262,#1263,#1264));
#1327=CLOSED_SHELL('',(#1265,#1266,#1267,#1268,#1269,#1270));
#1328=CLOSED_SHELL('',(#1271,#1272,#1273,#1274,#1275,#1276));
#1329=CLOSED_SHELL('',(#1277,#1278,#1279,#1280,#1281,#1282));
#1330=CLOSED_SHELL('',(#1283,#1284,#1285,#1286,#1287,#1288));
#1331=CLOSED_SHELL('',(#1289,#1290,#1291,#1292,#1293,#1294));
#1332=CLOSED_SHELL('',(#1295,#1296,#1297,#1298,#1299,#1300));
#1333=CLOSED_SHELL('',(#1301,#1302,#1303,#1304,#1305,#1306));
#1334=CLOSED_SHELL('',(#1307,#1308,#1309,#1310,#1311,#1312));
#1335=CLOSED_SHELL('',(#1313,#1314,#1315));
#1336=CLOSED_SHELL('',(#1316,#1317,#1318));
#1337=CLOSED_SHELL('',(#1319,#1320,#1321));
#1338=DERIVED_UNIT_ELEMENT(#1340,1.);
#1339=DERIVED_UNIT_ELEMENT(#2159,-3.);
#1340=(
MASS_UNIT()
NAMED_UNIT(*)
SI_UNIT(.KILO.,.GRAM.)
);
#1341=DERIVED_UNIT((#1338,#1339));
#1342=MEASURE_REPRESENTATION_ITEM('density measure',
POSITIVE_RATIO_MEASURE(7872.),#1341);
#1343=PROPERTY_DEFINITION_REPRESENTATION(#1348,#1345);
#1344=PROPERTY_DEFINITION_REPRESENTATION(#1349,#1346);
#1345=REPRESENTATION('material name',(#1347),#2156);
#1346=REPRESENTATION('density',(#1342),#2156);
#1347=DESCRIPTIVE_REPRESENTATION_ITEM('AISI \X\C7elik 1006 85B HR',
'AISI \X\C7elik 1006 85B HR');
#1348=PROPERTY_DEFINITION('material property','material name',#2166);
#1349=PROPERTY_DEFINITION('material property','density of part',#2166);
#1350=AXIS2_PLACEMENT_3D('',#1791,#1444,#1445);
#1351=AXIS2_PLACEMENT_3D('',#1792,#1446,#1447);
#1352=AXIS2_PLACEMENT_3D('',#1801,#1452,#1453);
#1353=AXIS2_PLACEMENT_3D('',#1807,#1457,#1458);
#1354=AXIS2_PLACEMENT_3D('',#1813,#1462,#1463);
#1355=AXIS2_PLACEMENT_3D('',#1816,#1466,#1467);
#1356=AXIS2_PLACEMENT_3D('',#1817,#1468,#1469);
#1357=AXIS2_PLACEMENT_3D('',#1818,#1470,#1471);
#1358=AXIS2_PLACEMENT_3D('',#1827,#1476,#1477);
#1359=AXIS2_PLACEMENT_3D('',#1833,#1481,#1482);
#1360=AXIS2_PLACEMENT_3D('',#1839,#1486,#1487);
#1361=AXIS2_PLACEMENT_3D('',#1842,#1490,#1491);
#1362=AXIS2_PLACEMENT_3D('',#1843,#1492,#1493);
#1363=AXIS2_PLACEMENT_3D('',#1844,#1494,#1495);
#1364=AXIS2_PLACEMENT_3D('',#1853,#1500,#1501);
#1365=AXIS2_PLACEMENT_3D('',#1859,#1505,#1506);
#1366=AXIS2_PLACEMENT_3D('',#1865,#1510,#1511);
#1367=AXIS2_PLACEMENT_3D('',#1868,#1514,#1515);
#1368=AXIS2_PLACEMENT_3D('',#1869,#1516,#1517);
#1369=AXIS2_PLACEMENT_3D('',#1870,#1518,#1519);
#1370=AXIS2_PLACEMENT_3D('',#1879,#1524,#1525);
#1371=AXIS2_PLACEMENT_3D('',#1885,#1529,#1530);
#1372=AXIS2_PLACEMENT_3D('',#1891,#1534,#1535);
#1373=AXIS2_PLACEMENT_3D('',#1894,#1538,#1539);
#1374=AXIS2_PLACEMENT_3D('',#1895,#1540,#1541);
#1375=AXIS2_PLACEMENT_3D('',#1896,#1542,#1543);
#1376=AXIS2_PLACEMENT_3D('',#1905,#1548,#1549);
#1377=AXIS2_PLACEMENT_3D('',#1911,#1553,#1554);
#1378=AXIS2_PLACEMENT_3D('',#1917,#1558,#1559);
#1379=AXIS2_PLACEMENT_3D('',#1920,#1562,#1563);
#1380=AXIS2_PLACEMENT_3D('',#1921,#1564,#1565);
#1381=AXIS2_PLACEMENT_3D('',#1922,#1566,#1567);
#1382=AXIS2_PLACEMENT_3D('',#1931,#1572,#1573);
#1383=AXIS2_PLACEMENT_3D('',#1937,#1577,#1578);
#1384=AXIS2_PLACEMENT_3D('',#1943,#1582,#1583);
#1385=AXIS2_PLACEMENT_3D('',#1946,#1586,#1587);
#1386=AXIS2_PLACEMENT_3D('',#1947,#1588,#1589);
#1387=AXIS2_PLACEMENT_3D('',#1948,#1590,#1591);
#1388=AXIS2_PLACEMENT_3D('',#1957,#1596,#1597);
#1389=AXIS2_PLACEMENT_3D('',#1963,#1601,#1602);
#1390=AXIS2_PLACEMENT_3D('',#1969,#1606,#1607);
#1391=AXIS2_PLACEMENT_3D('',#1972,#1610,#1611);
#1392=AXIS2_PLACEMENT_3D('',#1973,#1612,#1613);
#1393=AXIS2_PLACEMENT_3D('',#1974,#1614,#1615);
#1394=AXIS2_PLACEMENT_3D('',#1983,#1620,#1621);
#1395=AXIS2_PLACEMENT_3D('',#1989,#1625,#1626);
#1396=AXIS2_PLACEMENT_3D('',#1995,#1630,#1631);
#1397=AXIS2_PLACEMENT_3D('',#1998,#1634,#1635);
#1398=AXIS2_PLACEMENT_3D('',#1999,#1636,#1637);
#1399=AXIS2_PLACEMENT_3D('',#2000,#1638,#1639);
#1400=AXIS2_PLACEMENT_3D('',#2009,#1644,#1645);
#1401=AXIS2_PLACEMENT_3D('',#2015,#1649,#1650);
#1402=AXIS2_PLACEMENT_3D('',#2021,#1654,#1655);
#1403=AXIS2_PLACEMENT_3D('',#2024,#1658,#1659);
#1404=AXIS2_PLACEMENT_3D('',#2025,#1660,#1661);
#1405=AXIS2_PLACEMENT_3D('',#2026,#1662,#1663);
#1406=AXIS2_PLACEMENT_3D('',#2035,#1668,#1669);
#1407=AXIS2_PLACEMENT_3D('',#2041,#1673,#1674);
#1408=AXIS2_PLACEMENT_3D('',#2047,#1678,#1679);
#1409=AXIS2_PLACEMENT_3D('',#2050,#1682,#1683);
#1410=AXIS2_PLACEMENT_3D('',#2051,#1684,#1685);
#1411=AXIS2_PLACEMENT_3D('',#2052,#1686,#1687);
#1412=AXIS2_PLACEMENT_3D('',#2061,#1692,#1693);
#1413=AXIS2_PLACEMENT_3D('',#2067,#1697,#1698);
#1414=AXIS2_PLACEMENT_3D('',#2073,#1702,#1703);
#1415=AXIS2_PLACEMENT_3D('',#2076,#1706,#1707);
#1416=AXIS2_PLACEMENT_3D('',#2077,#1708,#1709);
#1417=AXIS2_PLACEMENT_3D('',#2078,#1710,#1711);
#1418=AXIS2_PLACEMENT_3D('',#2087,#1716,#1717);
#1419=AXIS2_PLACEMENT_3D('',#2093,#1721,#1722);
#1420=AXIS2_PLACEMENT_3D('',#2099,#1726,#1727);
#1421=AXIS2_PLACEMENT_3D('',#2102,#1730,#1731);
#1422=AXIS2_PLACEMENT_3D('',#2103,#1732,#1733);
#1423=AXIS2_PLACEMENT_3D('',#2104,#1734,#1735);
#1424=AXIS2_PLACEMENT_3D('',#2113,#1740,#1741);
#1425=AXIS2_PLACEMENT_3D('',#2119,#1745,#1746);
#1426=AXIS2_PLACEMENT_3D('',#2125,#1750,#1751);
#1427=AXIS2_PLACEMENT_3D('',#2128,#1754,#1755);
#1428=AXIS2_PLACEMENT_3D('',#2129,#1756,#1757);
#1429=AXIS2_PLACEMENT_3D('',#2130,#1758,#1759);
#1430=AXIS2_PLACEMENT_3D('',#2132,#1760,#1761);
#1431=AXIS2_PLACEMENT_3D('',#2135,#1763,#1764);
#1432=AXIS2_PLACEMENT_3D('',#2136,#1765,#1766);
#1433=AXIS2_PLACEMENT_3D('',#2137,#1767,#1768);
#1434=AXIS2_PLACEMENT_3D('',#2138,#1769,#1770);
#1435=AXIS2_PLACEMENT_3D('',#2140,#1771,#1772);
#1436=AXIS2_PLACEMENT_3D('',#2143,#1774,#1775);
#1437=AXIS2_PLACEMENT_3D('',#2144,#1776,#1777);
#1438=AXIS2_PLACEMENT_3D('',#2145,#1778,#1779);
#1439=AXIS2_PLACEMENT_3D('',#2146,#1780,#1781);
#1440=AXIS2_PLACEMENT_3D('',#2148,#1782,#1783);
#1441=AXIS2_PLACEMENT_3D('',#2151,#1785,#1786);
#1442=AXIS2_PLACEMENT_3D('',#2152,#1787,#1788);
#1443=AXIS2_PLACEMENT_3D('',#2153,#1789,#1790);
#1444=DIRECTION('axis',(0.,0.,1.));
#1445=DIRECTION('refdir',(1.,0.,0.));
#1446=DIRECTION('center_axis',(0.,-1.,2.22044604925031E-16));
#1447=DIRECTION('ref_axis',(-1.,0.,0.));
#1448=DIRECTION('',(-1.,0.,0.));
#1449=DIRECTION('',(0.,-2.22044604925031E-16,-1.));
#1450=DIRECTION('',(-1.,0.,0.));
#1451=DIRECTION('',(0.,-2.22044604925031E-16,-1.));
#1452=DIRECTION('center_axis',(1.,0.,0.));
#1453=DIRECTION('ref_axis',(0.,-1.,2.22044604925031E-16));
#1454=DIRECTION('',(0.,-1.,2.22044604925031E-16));
#1455=DIRECTION('',(0.,-1.,2.22044604925031E-16));
#1456=DIRECTION('',(0.,-2.22044604925031E-16,-1.));
#1457=DIRECTION('center_axis',(0.,1.,-2.22044604925031E-16));
#1458=DIRECTION('ref_axis',(1.,0.,0.));
#1459=DIRECTION('',(1.,0.,0.));
#1460=DIRECTION('',(1.,0.,0.));
#1461=DIRECTION('',(0.,-2.22044604925031E-16,-1.));
#1462=DIRECTION('center_axis',(-1.,0.,0.));
#1463=DIRECTION('ref_axis',(0.,1.,-2.22044604925031E-16));
#1464=DIRECTION('',(0.,1.,-2.22044604925031E-16));
#1465=DIRECTION('',(0.,1.,-2.22044604925031E-16));
#1466=DIRECTION('center_axis',(0.,-2.22044604925031E-16,-1.));
#1467=DIRECTION('ref_axis',(0.,1.,-2.22044604925031E-16));
#1468=DIRECTION('center_axis',(0.,-2.22044604925031E-16,-1.));
#1469=DIRECTION('ref_axis',(1.,0.,0.));
#1470=DIRECTION('center_axis',(0.,0.,-1.));
#1471=DIRECTION('ref_axis',(-1.,0.,0.));
#1472=DIRECTION('',(-1.,0.,0.));
#1473=DIRECTION('',(0.,1.,0.));
#1474=DIRECTION('',(-1.,0.,0.));
#1475=DIRECTION('',(0.,1.,0.));
#1476=DIRECTION('center_axis',(1.,0.,0.));
#1477=DIRECTION('ref_axis',(0.,0.,-1.));
#1478=DIRECTION('',(0.,0.,-1.));
#1479=DIRECTION('',(0.,0.,-1.));
#1480=DIRECTION('',(0.,1.,0.));
#1481=DIRECTION('center_axis',(0.,0.,1.));
#1482=DIRECTION('ref_axis',(1.,0.,0.));
#1483=DIRECTION('',(1.,0.,0.));
#1484=DIRECTION('',(1.,0.,0.));
#1485=DIRECTION('',(0.,1.,0.));
#1486=DIRECTION('center_axis',(-1.,0.,0.));
#1487=DIRECTION('ref_axis',(0.,0.,1.));
#1488=DIRECTION('',(0.,0.,1.));
#1489=DIRECTION('',(0.,0.,1.));
#1490=DIRECTION('center_axis',(0.,1.,0.));
#1491=DIRECTION('ref_axis',(0.,0.,1.));
#1492=DIRECTION('center_axis',(0.,1.,0.));
#1493=DIRECTION('ref_axis',(1.,0.,0.));
#1494=DIRECTION('center_axis',(-1.,0.,0.));
#1495=DIRECTION('ref_axis',(0.,-1.,0.));
#1496=DIRECTION('',(0.,1.,0.));
#1497=DIRECTION('',(0.,0.,1.));
#1498=DIRECTION('',(0.,-1.,0.));
#1499=DIRECTION('',(0.,0.,1.));
#1500=DIRECTION('center_axis',(0.,1.,0.));
#1501=DIRECTION('ref_axis',(-1.,0.,0.));
#1502=DIRECTION('',(1.,0.,0.));
#1503=DIRECTION('',(-1.,0.,0.));
#1504=DIRECTION('',(0.,0.,1.));
#1505=DIRECTION('center_axis',(1.,0.,0.));
#1506=DIRECTION('ref_axis',(0.,1.,0.));
#1507=DIRECTION('',(0.,-1.,0.));
#1508=DIRECTION('',(0.,1.,0.));
#1509=DIRECTION('',(0.,0.,1.));
#1510=DIRECTION('center_axis',(0.,-1.,0.));
#1511=DIRECTION('ref_axis',(1.,0.,0.));
#1512=DIRECTION('',(-1.,0.,0.));
#1513=DIRECTION('',(1.,0.,0.));
#1514=DIRECTION('center_axis',(0.,0.,1.));
#1515=DIRECTION('ref_axis',(1.,0.,0.));
#1516=DIRECTION('center_axis',(0.,0.,1.));
#1517=DIRECTION('ref_axis',(1.,0.,0.));
#1518=DIRECTION('center_axis',(-1.,0.,0.));
#1519=DIRECTION('ref_axis',(0.,-1.,0.));
#1520=DIRECTION('',(0.,1.,0.));
#1521=DIRECTION('',(0.,0.,1.));
#1522=DIRECTION('',(0.,-1.,0.));
#1523=DIRECTION('',(0.,0.,1.));
#1524=DIRECTION('center_axis',(0.,1.,0.));
#1525=DIRECTION('ref_axis',(-1.,0.,0.));
#1526=DIRECTION('',(1.,0.,0.));
#1527=DIRECTION('',(-1.,0.,0.));
#1528=DIRECTION('',(0.,0.,1.));
#1529=DIRECTION('center_axis',(1.,0.,0.));
#1530=DIRECTION('ref_axis',(0.,1.,0.));
#1531=DIRECTION('',(0.,-1.,0.));
#1532=DIRECTION('',(0.,1.,0.));
#1533=DIRECTION('',(0.,0.,1.));
#1534=DIRECTION('center_axis',(0.,-1.,0.));
#1535=DIRECTION('ref_axis',(1.,0.,0.));
#1536=DIRECTION('',(-1.,0.,0.));
#1537=DIRECTION('',(1.,0.,0.));
#1538=DIRECTION('center_axis',(0.,0.,1.));
#1539=DIRECTION('ref_axis',(1.,0.,0.));
#1540=DIRECTION('center_axis',(0.,0.,1.));
#1541=DIRECTION('ref_axis',(1.,0.,0.));
#1542=DIRECTION('center_axis',(-1.,0.,0.));
#1543=DIRECTION('ref_axis',(0.,0.,1.));
#1544=DIRECTION('',(0.,0.,-1.));
#1545=DIRECTION('',(0.,1.,0.));
#1546=DIRECTION('',(0.,0.,1.));
#1547=DIRECTION('',(0.,1.,0.));
#1548=DIRECTION('center_axis',(0.,0.,-1.));
#1549=DIRECTION('ref_axis',(-1.,0.,0.));
#1550=DIRECTION('',(1.,0.,0.));
#1551=DIRECTION('',(-1.,0.,0.));
#1552=DIRECTION('',(0.,1.,0.));
#1553=DIRECTION('center_axis',(1.,0.,0.));
#1554=DIRECTION('ref_axis',(0.,0.,-1.));
#1555=DIRECTION('',(0.,0.,1.));
#1556=DIRECTION('',(0.,0.,-1.));
#1557=DIRECTION('',(0.,1.,0.));
#1558=DIRECTION('center_axis',(0.,0.,1.));
#1559=DIRECTION('ref_axis',(1.,0.,0.));
#1560=DIRECTION('',(-1.,0.,0.));
#1561=DIRECTION('',(1.,0.,0.));
#1562=DIRECTION('center_axis',(0.,1.,0.));
#1563=DIRECTION('ref_axis',(0.,0.,1.));
#1564=DIRECTION('center_axis',(0.,1.,0.));
#1565=DIRECTION('ref_axis',(1.,0.,0.));
#1566=DIRECTION('center_axis',(-1.,0.,0.));
#1567=DIRECTION('ref_axis',(0.,1.,-2.22044604925031E-16));
#1568=DIRECTION('',(0.,-1.,2.22044604925031E-16));
#1569=DIRECTION('',(0.,-2.22044604925031E-16,-1.));
#1570=DIRECTION('',(0.,1.,-2.22044604925031E-16));
#1571=DIRECTION('',(0.,-2.22044604925031E-16,-1.));
#1572=DIRECTION('center_axis',(0.,-1.,2.22044604925031E-16));
#1573=DIRECTION('ref_axis',(-1.,0.,0.));
#1574=DIRECTION('',(1.,0.,0.));
#1575=DIRECTION('',(-1.,0.,0.));
#1576=DIRECTION('',(0.,-2.22044604925031E-16,-1.));
#1577=DIRECTION('center_axis',(1.,0.,0.));
#1578=DIRECTION('ref_axis',(0.,-1.,2.22044604925031E-16));
#1579=DIRECTION('',(0.,1.,-2.22044604925031E-16));
#1580=DIRECTION('',(0.,-1.,2.22044604925031E-16));
#1581=DIRECTION('',(0.,-2.22044604925031E-16,-1.));
#1582=DIRECTION('center_axis',(0.,1.,-2.22044604925031E-16));
#1583=DIRECTION('ref_axis',(1.,0.,0.));
#1584=DIRECTION('',(-1.,0.,0.));
#1585=DIRECTION('',(1.,0.,0.));
#1586=DIRECTION('center_axis',(0.,-2.22044604925031E-16,-1.));
#1587=DIRECTION('ref_axis',(0.,1.,-2.22044604925031E-16));
#1588=DIRECTION('center_axis',(0.,-2.22044604925031E-16,-1.));
#1589=DIRECTION('ref_axis',(1.,0.,0.));
#1590=DIRECTION('center_axis',(0.,0.,-1.));
#1591=DIRECTION('ref_axis',(0.,1.,0.));
#1592=DIRECTION('',(0.,1.,0.));
#1593=DIRECTION('',(1.,0.,0.));
#1594=DIRECTION('',(0.,1.,0.));
#1595=DIRECTION('',(1.,0.,0.));
#1596=DIRECTION('center_axis',(0.,-1.,0.));
#1597=DIRECTION('ref_axis',(0.,0.,-1.));
#1598=DIRECTION('',(0.,0.,-1.));
#1599=DIRECTION('',(0.,0.,-1.));
#1600=DIRECTION('',(1.,0.,0.));
#1601=DIRECTION('center_axis',(0.,0.,1.));
#1602=DIRECTION('ref_axis',(0.,-1.,0.));
#1603=DIRECTION('',(0.,-1.,0.));
#1604=DIRECTION('',(0.,-1.,0.));
#1605=DIRECTION('',(1.,0.,0.));
#1606=DIRECTION('center_axis',(0.,1.,0.));
#1607=DIRECTION('ref_axis',(0.,0.,1.));
#1608=DIRECTION('',(0.,0.,1.));
#1609=DIRECTION('',(0.,0.,1.));
#1610=DIRECTION('center_axis',(1.,0.,0.));
#1611=DIRECTION('ref_axis',(0.,0.,-1.));
#1612=DIRECTION('center_axis',(1.,0.,0.));
#1613=DIRECTION('ref_axis',(0.,1.,0.));
#1614=DIRECTION('center_axis',(0.,0.,-1.));
#1615=DIRECTION('ref_axis',(0.,1.,0.));
#1616=DIRECTION('',(0.,1.,0.));
#1617=DIRECTION('',(1.,0.,0.));
#1618=DIRECTION('',(0.,1.,0.));
#1619=DIRECTION('',(1.,0.,0.));
#1620=DIRECTION('center_axis',(0.,-1.,0.));
#1621=DIRECTION('ref_axis',(0.,0.,-1.));
#1622=DIRECTION('',(0.,0.,-1.));
#1623=DIRECTION('',(0.,0.,-1.));
#1624=DIRECTION('',(1.,0.,0.));
#1625=DIRECTION('center_axis',(0.,0.,1.));
#1626=DIRECTION('ref_axis',(0.,-1.,0.));
#1627=DIRECTION('',(0.,-1.,0.));
#1628=DIRECTION('',(0.,-1.,0.));
#1629=DIRECTION('',(1.,0.,0.));
#1630=DIRECTION('center_axis',(0.,1.,0.));
#1631=DIRECTION('ref_axis',(0.,0.,1.));
#1632=DIRECTION('',(0.,0.,1.));
#1633=DIRECTION('',(0.,0.,1.));
#1634=DIRECTION('center_axis',(1.,0.,0.));
#1635=DIRECTION('ref_axis',(0.,0.,-1.));
#1636=DIRECTION('center_axis',(1.,0.,0.));
#1637=DIRECTION('ref_axis',(0.,1.,0.));
#1638=DIRECTION('center_axis',(0.,0.,-1.));
#1639=DIRECTION('ref_axis',(0.,1.,0.));
#1640=DIRECTION('',(0.,1.,0.));
#1641=DIRECTION('',(1.,0.,0.));
#1642=DIRECTION('',(0.,1.,0.));
#1643=DIRECTION('',(1.,0.,0.));
#1644=DIRECTION('center_axis',(0.,-1.,0.));
#1645=DIRECTION('ref_axis',(0.,0.,-1.));
#1646=DIRECTION('',(0.,0.,-1.));
#1647=DIRECTION('',(0.,0.,-1.));
#1648=DIRECTION('',(1.,0.,0.));
#1649=DIRECTION('center_axis',(0.,0.,1.));
#1650=DIRECTION('ref_axis',(0.,-1.,0.));
#1651=DIRECTION('',(0.,-1.,0.));
#1652=DIRECTION('',(0.,-1.,0.));
#1653=DIRECTION('',(1.,0.,0.));
#1654=DIRECTION('center_axis',(0.,1.,0.));
#1655=DIRECTION('ref_axis',(0.,0.,1.));
#1656=DIRECTION('',(0.,0.,1.));
#1657=DIRECTION('',(0.,0.,1.));
#1658=DIRECTION('center_axis',(1.,0.,0.));
#1659=DIRECTION('ref_axis',(0.,0.,-1.));
#1660=DIRECTION('center_axis',(1.,0.,0.));
#1661=DIRECTION('ref_axis',(0.,1.,0.));
#1662=DIRECTION('center_axis',(0.,0.,-1.));
#1663=DIRECTION('ref_axis',(0.,1.,0.));
#1664=DIRECTION('',(0.,1.,0.));
#1665=DIRECTION('',(1.,0.,0.));
#1666=DIRECTION('',(0.,1.,0.));
#1667=DIRECTION('',(1.,0.,0.));
#1668=DIRECTION('center_axis',(0.,-1.,0.));
#1669=DIRECTION('ref_axis',(0.,0.,-1.));
#1670=DIRECTION('',(0.,0.,-1.));
#1671=DIRECTION('',(0.,0.,-1.));
#1672=DIRECTION('',(1.,0.,0.));
#1673=DIRECTION('center_axis',(0.,0.,1.));
#1674=DIRECTION('ref_axis',(0.,-1.,0.));
#1675=DIRECTION('',(0.,-1.,0.));
#1676=DIRECTION('',(0.,-1.,0.));
#1677=DIRECTION('',(1.,0.,0.));
#1678=DIRECTION('center_axis',(0.,1.,0.));
#1679=DIRECTION('ref_axis',(0.,0.,1.));
#1680=DIRECTION('',(0.,0.,1.));
#1681=DIRECTION('',(0.,0.,1.));
#1682=DIRECTION('center_axis',(1.,0.,0.));
#1683=DIRECTION('ref_axis',(0.,0.,-1.));
#1684=DIRECTION('center_axis',(1.,0.,0.));
#1685=DIRECTION('ref_axis',(0.,1.,0.));
#1686=DIRECTION('center_axis',(0.,0.,-1.));
#1687=DIRECTION('ref_axis',(0.,1.,0.));
#1688=DIRECTION('',(0.,1.,0.));
#1689=DIRECTION('',(1.,0.,0.));
#1690=DIRECTION('',(0.,1.,0.));
#1691=DIRECTION('',(1.,0.,0.));
#1692=DIRECTION('center_axis',(0.,-1.,0.));
#1693=DIRECTION('ref_axis',(0.,0.,-1.));
#1694=DIRECTION('',(0.,0.,-1.));
#1695=DIRECTION('',(0.,0.,-1.));
#1696=DIRECTION('',(1.,0.,0.));
#1697=DIRECTION('center_axis',(0.,0.,1.));
#1698=DIRECTION('ref_axis',(0.,-1.,0.));
#1699=DIRECTION('',(0.,-1.,0.));
#1700=DIRECTION('',(0.,-1.,0.));
#1701=DIRECTION('',(1.,0.,0.));
#1702=DIRECTION('center_axis',(0.,1.,0.));
#1703=DIRECTION('ref_axis',(0.,0.,1.));
#1704=DIRECTION('',(0.,0.,1.));
#1705=DIRECTION('',(0.,0.,1.));
#1706=DIRECTION('center_axis',(1.,0.,0.));
#1707=DIRECTION('ref_axis',(0.,0.,-1.));
#1708=DIRECTION('center_axis',(1.,0.,0.));
#1709=DIRECTION('ref_axis',(0.,1.,0.));
#1710=DIRECTION('center_axis',(0.,0.,-1.));
#1711=DIRECTION('ref_axis',(0.,1.,0.));
#1712=DIRECTION('',(0.,1.,0.));
#1713=DIRECTION('',(1.,0.,0.));
#1714=DIRECTION('',(0.,1.,0.));
#1715=DIRECTION('',(1.,0.,0.));
#1716=DIRECTION('center_axis',(0.,-1.,0.));
#1717=DIRECTION('ref_axis',(0.,0.,-1.));
#1718=DIRECTION('',(0.,0.,-1.));
#1719=DIRECTION('',(0.,0.,-1.));
#1720=DIRECTION('',(1.,0.,0.));
#1721=DIRECTION('center_axis',(0.,0.,1.));
#1722=DIRECTION('ref_axis',(0.,-1.,0.));
#1723=DIRECTION('',(0.,-1.,0.));
#1724=DIRECTION('',(0.,-1.,0.));
#1725=DIRECTION('',(1.,0.,0.));
#1726=DIRECTION('center_axis',(0.,1.,0.));
#1727=DIRECTION('ref_axis',(0.,0.,1.));
#1728=DIRECTION('',(0.,0.,1.));
#1729=DIRECTION('',(0.,0.,1.));
#1730=DIRECTION('center_axis',(1.,0.,0.));
#1731=DIRECTION('ref_axis',(0.,0.,-1.));
#1732=DIRECTION('center_axis',(1.,0.,0.));
#1733=DIRECTION('ref_axis',(0.,1.,0.));
#1734=DIRECTION('center_axis',(0.,0.,-1.));
#1735=DIRECTION('ref_axis',(-1.,0.,0.));
#1736=DIRECTION('',(-1.,0.,0.));
#1737=DIRECTION('',(0.,1.,0.));
#1738=DIRECTION('',(-1.,0.,0.));
#1739=DIRECTION('',(0.,1.,0.));
#1740=DIRECTION('center_axis',(1.,0.,0.));
#1741=DIRECTION('ref_axis',(0.,0.,-1.));
#1742=DIRECTION('',(0.,0.,-1.));
#1743=DIRECTION('',(0.,0.,-1.));
#1744=DIRECTION('',(0.,1.,0.));
#1745=DIRECTION('center_axis',(0.,0.,1.));
#1746=DIRECTION('ref_axis',(1.,0.,0.));
#1747=DIRECTION('',(1.,0.,0.));
#1748=DIRECTION('',(1.,0.,0.));
#1749=DIRECTION('',(0.,1.,0.));
#1750=DIRECTION('center_axis',(-1.,0.,0.));
#1751=DIRECTION('ref_axis',(0.,0.,1.));
#1752=DIRECTION('',(0.,0.,1.));
#1753=DIRECTION('',(0.,0.,1.));
#1754=DIRECTION('center_axis',(0.,1.,0.));
#1755=DIRECTION('ref_axis',(0.,0.,1.));
#1756=DIRECTION('center_axis',(0.,1.,0.));
#1757=DIRECTION('ref_axis',(1.,0.,0.));
#1758=DIRECTION('center_axis',(0.,-1.,0.));
#1759=DIRECTION('ref_axis',(1.,0.,0.));
#1760=DIRECTION('center_axis',(0.,-1.,0.));
#1761=DIRECTION('ref_axis',(1.,0.,0.));
#1762=DIRECTION('',(0.,1.,0.));
#1763=DIRECTION('center_axis',(0.,-1.,0.));
#1764=DIRECTION('ref_axis',(1.,0.,0.));
#1765=DIRECTION('center_axis',(0.,-1.,0.));
#1766=DIRECTION('ref_axis',(1.,0.,0.));
#1767=DIRECTION('center_axis',(0.,-1.,0.));
#1768=DIRECTION('ref_axis',(1.,0.,0.));
#1769=DIRECTION('center_axis',(0.,-1.,0.));
#1770=DIRECTION('ref_axis',(1.,0.,0.));
#1771=DIRECTION('center_axis',(0.,-1.,0.));
#1772=DIRECTION('ref_axis',(1.,0.,0.));
#1773=DIRECTION('',(0.,1.,0.));
#1774=DIRECTION('center_axis',(0.,-1.,0.));
#1775=DIRECTION('ref_axis',(1.,0.,0.));
#1776=DIRECTION('center_axis',(0.,-1.,0.));
#1777=DIRECTION('ref_axis',(1.,0.,0.));
#1778=DIRECTION('center_axis',(0.,-1.,0.));
#1779=DIRECTION('ref_axis',(1.,0.,0.));
#1780=DIRECTION('center_axis',(0.,-1.,0.));
#1781=DIRECTION('ref_axis',(1.,0.,0.));
#1782=DIRECTION('center_axis',(0.,-1.,0.));
#1783=DIRECTION('ref_axis',(1.,0.,0.));
#1784=DIRECTION('',(0.,1.,0.));
#1785=DIRECTION('center_axis',(0.,-1.,0.));
#1786=DIRECTION('ref_axis',(1.,0.,0.));
#1787=DIRECTION('center_axis',(0.,-1.,0.));
#1788=DIRECTION('ref_axis',(1.,0.,0.));
#1789=DIRECTION('center_axis',(0.,-1.,0.));
#1790=DIRECTION('ref_axis',(1.,0.,0.));
#1791=CARTESIAN_POINT('',(0.,0.,0.));
#1792=CARTESIAN_POINT('Origin',(12.5,-12.5,42.5));
#1793=CARTESIAN_POINT('',(12.5,-12.5,42.5));
#1794=CARTESIAN_POINT('',(-12.5,-12.5,42.5));
#1795=CARTESIAN_POINT('',(12.5,-12.5,42.5));
#1796=CARTESIAN_POINT('',(-12.5,-12.5,-32.5));
#1797=CARTESIAN_POINT('',(-12.5,-12.5,42.5));
#1798=CARTESIAN_POINT('',(12.5,-12.5,-32.5));
#1799=CARTESIAN_POINT('',(12.5,-12.5,-32.5));
#1800=CARTESIAN_POINT('',(12.5,-12.5,42.5));
#1801=CARTESIAN_POINT('Origin',(12.5,12.5,42.5));
#1802=CARTESIAN_POINT('',(12.5,12.5,42.5));
#1803=CARTESIAN_POINT('',(12.5,12.5,42.5));
#1804=CARTESIAN_POINT('',(12.5,12.5,-32.5));
#1805=CARTESIAN_POINT('',(12.5,12.5,-32.5));
#1806=CARTESIAN_POINT('',(12.5,12.5,42.5));
#1807=CARTESIAN_POINT('Origin',(-12.5,12.5,42.5));
#1808=CARTESIAN_POINT('',(-12.5,12.5,42.5));
#1809=CARTESIAN_POINT('',(-12.5,12.5,42.5));
#1810=CARTESIAN_POINT('',(-12.5,12.5,-32.5));
#1811=CARTESIAN_POINT('',(-12.5,12.5,-32.5));
#1812=CARTESIAN_POINT('',(-12.5,12.5,42.5));
#1813=CARTESIAN_POINT('Origin',(-12.5,-12.5,42.5));
#1814=CARTESIAN_POINT('',(-12.5,-12.5,42.5));
#1815=CARTESIAN_POINT('',(-12.5,-12.5,-32.5));
#1816=CARTESIAN_POINT('Origin',(0.,0.,-32.5));
#1817=CARTESIAN_POINT('Origin',(0.,1.59872115546023E-14,42.5));
#1818=CARTESIAN_POINT('Origin',(12.5,-13.,4.5));
#1819=CARTESIAN_POINT('',(12.5,-13.,4.5));
#1820=CARTESIAN_POINT('',(-12.5,-13.,4.5));
#1821=CARTESIAN_POINT('',(12.5,-13.,4.5));
#1822=CARTESIAN_POINT('',(-12.5,-12.5,4.5));
#1823=CARTESIAN_POINT('',(-12.5,-13.,4.5));
#1824=CARTESIAN_POINT('',(12.5,-12.5,4.5));
#1825=CARTESIAN_POINT('',(12.5,-12.5,4.5));
#1826=CARTESIAN_POINT('',(12.5,-13.,4.5));
#1827=CARTESIAN_POINT('Origin',(12.5,-13.,5.));
#1828=CARTESIAN_POINT('',(12.5,-13.,5.));
#1829=CARTESIAN_POINT('',(12.5,-13.,5.));
#1830=CARTESIAN_POINT('',(12.5,-12.5,5.));
#1831=CARTESIAN_POINT('',(12.5,-12.5,5.));
#1832=CARTESIAN_POINT('',(12.5,-13.,5.));
#1833=CARTESIAN_POINT('Origin',(-12.5,-13.,5.));
#1834=CARTESIAN_POINT('',(-12.5,-13.,5.));
#1835=CARTESIAN_POINT('',(-12.5,-13.,5.));
#1836=CARTESIAN_POINT('',(-12.5,-12.5,5.));
#1837=CARTESIAN_POINT('',(-12.5,-12.5,5.));
#1838=CARTESIAN_POINT('',(-12.5,-13.,5.));
#1839=CARTESIAN_POINT('Origin',(-12.5,-13.,4.5));
#1840=CARTESIAN_POINT('',(-12.5,-13.,4.5));
#1841=CARTESIAN_POINT('',(-12.5,-12.5,4.5));
#1842=CARTESIAN_POINT('Origin',(0.,-12.5,4.75));
#1843=CARTESIAN_POINT('Origin',(0.,-13.,4.75));
#1844=CARTESIAN_POINT('Origin',(-17.,17.,-32.5));
#1845=CARTESIAN_POINT('',(-17.,-18.,-32.5));
#1846=CARTESIAN_POINT('',(-17.,17.,-32.5));
#1847=CARTESIAN_POINT('',(-17.,-18.,-32.5));
#1848=CARTESIAN_POINT('',(-17.,-18.,-31.5));
#1849=CARTESIAN_POINT('',(-17.,-18.,-32.5));
#1850=CARTESIAN_POINT('',(-17.,17.,-31.5));
#1851=CARTESIAN_POINT('',(-17.,-18.,-31.5));
#1852=CARTESIAN_POINT('',(-17.,17.,-32.5));
#1853=CARTESIAN_POINT('Origin',(18.,17.,-32.5));
#1854=CARTESIAN_POINT('',(18.,17.,-32.5));
#1855=CARTESIAN_POINT('',(-17.,17.,-32.5));
#1856=CARTESIAN_POINT('',(18.,17.,-31.5));
#1857=CARTESIAN_POINT('',(-17.,17.,-31.5));
#1858=CARTESIAN_POINT('',(18.,17.,-32.5));
#1859=CARTESIAN_POINT('Origin',(18.,-18.,-32.5));
#1860=CARTESIAN_POINT('',(18.,-18.,-32.5));
#1861=CARTESIAN_POINT('',(18.,17.,-32.5));
#1862=CARTESIAN_POINT('',(18.,-18.,-31.5));
#1863=CARTESIAN_POINT('',(18.,17.,-31.5));
#1864=CARTESIAN_POINT('',(18.,-18.,-32.5));
#1865=CARTESIAN_POINT('Origin',(-17.,-18.,-32.5));
#1866=CARTESIAN_POINT('',(18.,-18.,-32.5));
#1867=CARTESIAN_POINT('',(18.,-18.,-31.5));
#1868=CARTESIAN_POINT('Origin',(0.5,-0.5,-31.5));
#1869=CARTESIAN_POINT('Origin',(0.5,-0.5,-32.5));
#1870=CARTESIAN_POINT('Origin',(-17.,17.,41.5));
#1871=CARTESIAN_POINT('',(-17.,-18.,41.5));
#1872=CARTESIAN_POINT('',(-17.,17.,41.5));
#1873=CARTESIAN_POINT('',(-17.,-18.,41.5));
#1874=CARTESIAN_POINT('',(-17.,-18.,42.5));
#1875=CARTESIAN_POINT('',(-17.,-18.,41.5));
#1876=CARTESIAN_POINT('',(-17.,17.,42.5));
#1877=CARTESIAN_POINT('',(-17.,-18.,42.5));
#1878=CARTESIAN_POINT('',(-17.,17.,41.5));
#1879=CARTESIAN_POINT('Origin',(18.,17.,41.5));
#1880=CARTESIAN_POINT('',(18.,17.,41.5));
#1881=CARTESIAN_POINT('',(-17.,17.,41.5));
#1882=CARTESIAN_POINT('',(18.,17.,42.5));
#1883=CARTESIAN_POINT('',(-17.,17.,42.5));
#1884=CARTESIAN_POINT('',(18.,17.,41.5));
#1885=CARTESIAN_POINT('Origin',(18.,-18.,41.5));
#1886=CARTESIAN_POINT('',(18.,-18.,41.5));
#1887=CARTESIAN_POINT('',(18.,17.,41.5));
#1888=CARTESIAN_POINT('',(18.,-18.,42.5));
#1889=CARTESIAN_POINT('',(18.,17.,42.5));
#1890=CARTESIAN_POINT('',(18.,-18.,41.5));
#1891=CARTESIAN_POINT('Origin',(-17.,-18.,41.5));
#1892=CARTESIAN_POINT('',(18.,-18.,41.5));
#1893=CARTESIAN_POINT('',(18.,-18.,42.5));
#1894=CARTESIAN_POINT('Origin',(0.5,-0.5,42.5));
#1895=CARTESIAN_POINT('Origin',(0.5,-0.5,41.5));
#1896=CARTESIAN_POINT('Origin',(-9.5,-9.95,42.5));
#1897=CARTESIAN_POINT('',(-9.5,-9.95,62.5));
#1898=CARTESIAN_POINT('',(-9.5,-9.95,42.5));
#1899=CARTESIAN_POINT('',(-9.5,-9.95,62.5));
#1900=CARTESIAN_POINT('',(-9.5,10.05,62.5));
#1901=CARTESIAN_POINT('',(-9.5,-9.95,62.5));
#1902=CARTESIAN_POINT('',(-9.5,10.05,42.5));
#1903=CARTESIAN_POINT('',(-9.5,10.05,62.5));
#1904=CARTESIAN_POINT('',(-9.5,-9.95,42.5));
#1905=CARTESIAN_POINT('Origin',(10.5,-9.95,42.5));
#1906=CARTESIAN_POINT('',(10.5,-9.95,42.5));
#1907=CARTESIAN_POINT('',(-9.5,-9.95,42.5));
#1908=CARTESIAN_POINT('',(10.5,10.05,42.5));
#1909=CARTESIAN_POINT('',(-9.5,10.05,42.5));
#1910=CARTESIAN_POINT('',(10.5,-9.95,42.5));
#1911=CARTESIAN_POINT('Origin',(10.5,-9.95,62.5));
#1912=CARTESIAN_POINT('',(10.5,-9.95,62.5));
#1913=CARTESIAN_POINT('',(10.5,-9.95,42.5));
#1914=CARTESIAN_POINT('',(10.5,10.05,62.5));
#1915=CARTESIAN_POINT('',(10.5,10.05,42.5));
#1916=CARTESIAN_POINT('',(10.5,-9.95,62.5));
#1917=CARTESIAN_POINT('Origin',(-9.5,-9.95,62.5));
#1918=CARTESIAN_POINT('',(10.5,-9.95,62.5));
#1919=CARTESIAN_POINT('',(10.5,10.05,62.5));
#1920=CARTESIAN_POINT('Origin',(0.5,10.05,52.5));
#1921=CARTESIAN_POINT('Origin',(0.5,-9.95,52.5));
#1922=CARTESIAN_POINT('Origin',(-12.,-13.,62.5));
#1923=CARTESIAN_POINT('',(-12.,12.,62.5));
#1924=CARTESIAN_POINT('',(-12.,-13.,62.5));
#1925=CARTESIAN_POINT('',(-12.,12.,62.5));
#1926=CARTESIAN_POINT('',(-12.,12.,62.));
#1927=CARTESIAN_POINT('',(-12.,12.,62.5));
#1928=CARTESIAN_POINT('',(-12.,-13.,62.));
#1929=CARTESIAN_POINT('',(-12.,12.,62.));
#1930=CARTESIAN_POINT('',(-12.,-13.,62.5));
#1931=CARTESIAN_POINT('Origin',(13.,-13.,62.5));
#1932=CARTESIAN_POINT('',(13.,-13.,62.5));
#1933=CARTESIAN_POINT('',(-12.,-13.,62.5));
#1934=CARTESIAN_POINT('',(13.,-13.,62.));
#1935=CARTESIAN_POINT('',(-12.,-13.,62.));
#1936=CARTESIAN_POINT('',(13.,-13.,62.5));
#1937=CARTESIAN_POINT('Origin',(13.,12.,62.5));
#1938=CARTESIAN_POINT('',(13.,12.,62.5));
#1939=CARTESIAN_POINT('',(13.,-13.,62.5));
#1940=CARTESIAN_POINT('',(13.,12.,62.));
#1941=CARTESIAN_POINT('',(13.,-13.,62.));
#1942=CARTESIAN_POINT('',(13.,12.,62.5));
#1943=CARTESIAN_POINT('Origin',(-12.,12.,62.5));
#1944=CARTESIAN_POINT('',(13.,12.,62.5));
#1945=CARTESIAN_POINT('',(13.,12.,62.));
#1946=CARTESIAN_POINT('Origin',(0.5,-0.499999999999992,62.));
#1947=CARTESIAN_POINT('Origin',(0.5,-0.499999999999992,62.5));
#1948=CARTESIAN_POINT('Origin',(5.5,12.5,-32.));
#1949=CARTESIAN_POINT('',(5.5,12.5,-32.));
#1950=CARTESIAN_POINT('',(5.5,14.5,-32.));
#1951=CARTESIAN_POINT('',(5.5,12.5,-32.));
#1952=CARTESIAN_POINT('',(7.5,14.5,-32.));
#1953=CARTESIAN_POINT('',(5.5,14.5,-32.));
#1954=CARTESIAN_POINT('',(7.5,12.5,-32.));
#1955=CARTESIAN_POINT('',(7.5,12.5,-32.));
#1956=CARTESIAN_POINT('',(5.5,12.5,-32.));
#1957=CARTESIAN_POINT('Origin',(5.5,12.5,42.));
#1958=CARTESIAN_POINT('',(5.5,12.5,42.));
#1959=CARTESIAN_POINT('',(5.5,12.5,42.));
#1960=CARTESIAN_POINT('',(7.5,12.5,42.));
#1961=CARTESIAN_POINT('',(7.5,12.5,42.));
#1962=CARTESIAN_POINT('',(5.5,12.5,42.));
#1963=CARTESIAN_POINT('Origin',(5.5,14.5,42.));
#1964=CARTESIAN_POINT('',(5.5,14.5,42.));
#1965=CARTESIAN_POINT('',(5.5,14.5,42.));
#1966=CARTESIAN_POINT('',(7.5,14.5,42.));
#1967=CARTESIAN_POINT('',(7.5,14.5,42.));
#1968=CARTESIAN_POINT('',(5.5,14.5,42.));
#1969=CARTESIAN_POINT('Origin',(5.5,14.5,-32.));
#1970=CARTESIAN_POINT('',(5.5,14.5,-32.));
#1971=CARTESIAN_POINT('',(7.5,14.5,-32.));
#1972=CARTESIAN_POINT('Origin',(7.5,13.5,5.));
#1973=CARTESIAN_POINT('Origin',(5.5,13.5,5.));
#1974=CARTESIAN_POINT('Origin',(-14.,-7.5,-32.));
#1975=CARTESIAN_POINT('',(-14.,-7.5,-32.));
#1976=CARTESIAN_POINT('',(-14.,-5.5,-32.));
#1977=CARTESIAN_POINT('',(-14.,-7.5,-32.));
#1978=CARTESIAN_POINT('',(-12.,-5.5,-32.));
#1979=CARTESIAN_POINT('',(-14.,-5.5,-32.));
#1980=CARTESIAN_POINT('',(-12.,-7.5,-32.));
#1981=CARTESIAN_POINT('',(-12.,-7.5,-32.));
#1982=CARTESIAN_POINT('',(-14.,-7.5,-32.));
#1983=CARTESIAN_POINT('Origin',(-14.,-7.5,42.));
#1984=CARTESIAN_POINT('',(-14.,-7.5,42.));
#1985=CARTESIAN_POINT('',(-14.,-7.5,42.));
#1986=CARTESIAN_POINT('',(-12.,-7.5,42.));
#1987=CARTESIAN_POINT('',(-12.,-7.5,42.));
#1988=CARTESIAN_POINT('',(-14.,-7.5,42.));
#1989=CARTESIAN_POINT('Origin',(-14.,-5.5,42.));
#1990=CARTESIAN_POINT('',(-14.,-5.5,42.));
#1991=CARTESIAN_POINT('',(-14.,-5.5,42.));
#1992=CARTESIAN_POINT('',(-12.,-5.5,42.));
#1993=CARTESIAN_POINT('',(-12.,-5.5,42.));
#1994=CARTESIAN_POINT('',(-14.,-5.5,42.));
#1995=CARTESIAN_POINT('Origin',(-14.,-5.5,-32.));
#1996=CARTESIAN_POINT('',(-14.,-5.5,-32.));
#1997=CARTESIAN_POINT('',(-12.,-5.5,-32.));
#1998=CARTESIAN_POINT('Origin',(-12.,-6.5,5.));
#1999=CARTESIAN_POINT('Origin',(-14.,-6.5,5.));
#2000=CARTESIAN_POINT('Origin',(-14.5,5.5,-32.));
#2001=CARTESIAN_POINT('',(-14.5,5.5,-32.));
#2002=CARTESIAN_POINT('',(-14.5,7.5,-32.));
#2003=CARTESIAN_POINT('',(-14.5,5.5,-32.));
#2004=CARTESIAN_POINT('',(-12.5,7.5,-32.));
#2005=CARTESIAN_POINT('',(-14.5,7.5,-32.));
#2006=CARTESIAN_POINT('',(-12.5,5.5,-32.));
#2007=CARTESIAN_POINT('',(-12.5,5.5,-32.));
#2008=CARTESIAN_POINT('',(-14.5,5.5,-32.));
#2009=CARTESIAN_POINT('Origin',(-14.5,5.5,42.));
#2010=CARTESIAN_POINT('',(-14.5,5.5,42.));
#2011=CARTESIAN_POINT('',(-14.5,5.5,42.));
#2012=CARTESIAN_POINT('',(-12.5,5.5,42.));
#2013=CARTESIAN_POINT('',(-12.5,5.5,42.));
#2014=CARTESIAN_POINT('',(-14.5,5.5,42.));
#2015=CARTESIAN_POINT('Origin',(-14.5,7.5,42.));
#2016=CARTESIAN_POINT('',(-14.5,7.5,42.));
#2017=CARTESIAN_POINT('',(-14.5,7.5,42.));
#2018=CARTESIAN_POINT('',(-12.5,7.5,42.));
#2019=CARTESIAN_POINT('',(-12.5,7.5,42.));
#2020=CARTESIAN_POINT('',(-14.5,7.5,42.));
#2021=CARTESIAN_POINT('Origin',(-14.5,7.5,-32.));
#2022=CARTESIAN_POINT('',(-14.5,7.5,-32.));
#2023=CARTESIAN_POINT('',(-12.5,7.5,-32.));
#2024=CARTESIAN_POINT('Origin',(-12.5,6.5,5.));
#2025=CARTESIAN_POINT('Origin',(-14.5,6.5,5.));
#2026=CARTESIAN_POINT('Origin',(12.5,-7.,-32.));
#2027=CARTESIAN_POINT('',(12.5,-7.,-32.));
#2028=CARTESIAN_POINT('',(12.5,-5.,-32.));
#2029=CARTESIAN_POINT('',(12.5,-7.,-32.));
#2030=CARTESIAN_POINT('',(14.5,-5.,-32.));
#2031=CARTESIAN_POINT('',(12.5,-5.,-32.));
#2032=CARTESIAN_POINT('',(14.5,-7.,-32.));
#2033=CARTESIAN_POINT('',(14.5,-7.,-32.));
#2034=CARTESIAN_POINT('',(12.5,-7.,-32.));
#2035=CARTESIAN_POINT('Origin',(12.5,-7.,42.));
#2036=CARTESIAN_POINT('',(12.5,-7.,42.));
#2037=CARTESIAN_POINT('',(12.5,-7.,42.));
#2038=CARTESIAN_POINT('',(14.5,-7.,42.));
#2039=CARTESIAN_POINT('',(14.5,-7.,42.));
#2040=CARTESIAN_POINT('',(12.5,-7.,42.));
#2041=CARTESIAN_POINT('Origin',(12.5,-5.,42.));
#2042=CARTESIAN_POINT('',(12.5,-5.,42.));
#2043=CARTESIAN_POINT('',(12.5,-5.,42.));
#2044=CARTESIAN_POINT('',(14.5,-5.,42.));
#2045=CARTESIAN_POINT('',(14.5,-5.,42.));
#2046=CARTESIAN_POINT('',(12.5,-5.,42.));
#2047=CARTESIAN_POINT('Origin',(12.5,-5.,-32.));
#2048=CARTESIAN_POINT('',(12.5,-5.,-32.));
#2049=CARTESIAN_POINT('',(14.5,-5.,-32.));
#2050=CARTESIAN_POINT('Origin',(14.5,-6.,5.));
#2051=CARTESIAN_POINT('Origin',(12.5,-6.,5.));
#2052=CARTESIAN_POINT('Origin',(12.5,5.5,-32.));
#2053=CARTESIAN_POINT('',(12.5,5.5,-32.));
#2054=CARTESIAN_POINT('',(12.5,7.5,-32.));
#2055=CARTESIAN_POINT('',(12.5,5.5,-32.));
#2056=CARTESIAN_POINT('',(14.5,7.5,-32.));
#2057=CARTESIAN_POINT('',(12.5,7.5,-32.));
#2058=CARTESIAN_POINT('',(14.5,5.5,-32.));
#2059=CARTESIAN_POINT('',(14.5,5.5,-32.));
#2060=CARTESIAN_POINT('',(12.5,5.5,-32.));
#2061=CARTESIAN_POINT('Origin',(12.5,5.5,42.));
#2062=CARTESIAN_POINT('',(12.5,5.5,42.));
#2063=CARTESIAN_POINT('',(12.5,5.5,42.));
#2064=CARTESIAN_POINT('',(14.5,5.5,42.));
#2065=CARTESIAN_POINT('',(14.5,5.5,42.));
#2066=CARTESIAN_POINT('',(12.5,5.5,42.));
#2067=CARTESIAN_POINT('Origin',(12.5,7.5,42.));
#2068=CARTESIAN_POINT('',(12.5,7.5,42.));
#2069=CARTESIAN_POINT('',(12.5,7.5,42.));
#2070=CARTESIAN_POINT('',(14.5,7.5,42.));
#2071=CARTESIAN_POINT('',(14.5,7.5,42.));
#2072=CARTESIAN_POINT('',(12.5,7.5,42.));
#2073=CARTESIAN_POINT('Origin',(12.5,7.5,-32.));
#2074=CARTESIAN_POINT('',(12.5,7.5,-32.));
#2075=CARTESIAN_POINT('',(14.5,7.5,-32.));
#2076=CARTESIAN_POINT('Origin',(14.5,6.5,5.));
#2077=CARTESIAN_POINT('Origin',(12.5,6.5,5.));
#2078=CARTESIAN_POINT('Origin',(-7.5,12.5,-32.));
#2079=CARTESIAN_POINT('',(-7.5,12.5,-32.));
#2080=CARTESIAN_POINT('',(-7.5,14.5,-32.));
#2081=CARTESIAN_POINT('',(-7.5,12.5,-32.));
#2082=CARTESIAN_POINT('',(-5.5,14.5,-32.));
#2083=CARTESIAN_POINT('',(-7.5,14.5,-32.));
#2084=CARTESIAN_POINT('',(-5.5,12.5,-32.));
#2085=CARTESIAN_POINT('',(-5.5,12.5,-32.));
#2086=CARTESIAN_POINT('',(-7.5,12.5,-32.));
#2087=CARTESIAN_POINT('Origin',(-7.5,12.5,42.));
#2088=CARTESIAN_POINT('',(-7.5,12.5,42.));
#2089=CARTESIAN_POINT('',(-7.5,12.5,42.));
#2090=CARTESIAN_POINT('',(-5.5,12.5,42.));
#2091=CARTESIAN_POINT('',(-5.5,12.5,42.));
#2092=CARTESIAN_POINT('',(-7.5,12.5,42.));
#2093=CARTESIAN_POINT('Origin',(-7.5,14.5,42.));
#2094=CARTESIAN_POINT('',(-7.5,14.5,42.));
#2095=CARTESIAN_POINT('',(-7.5,14.5,42.));
#2096=CARTESIAN_POINT('',(-5.5,14.5,42.));
#2097=CARTESIAN_POINT('',(-5.5,14.5,42.));
#2098=CARTESIAN_POINT('',(-7.5,14.5,42.));
#2099=CARTESIAN_POINT('Origin',(-7.5,14.5,-32.));
#2100=CARTESIAN_POINT('',(-7.5,14.5,-32.));
#2101=CARTESIAN_POINT('',(-5.5,14.5,-32.));
#2102=CARTESIAN_POINT('Origin',(-5.5,13.5,5.));
#2103=CARTESIAN_POINT('Origin',(-7.5,13.5,5.));
#2104=CARTESIAN_POINT('Origin',(12.5,-13.,4.5));
#2105=CARTESIAN_POINT('',(12.5,-13.,4.5));
#2106=CARTESIAN_POINT('',(-12.5,-13.,4.5));
#2107=CARTESIAN_POINT('',(12.5,-13.,4.5));
#2108=CARTESIAN_POINT('',(-12.5,-12.5,4.5));
#2109=CARTESIAN_POINT('',(-12.5,-13.,4.5));
#2110=CARTESIAN_POINT('',(12.5,-12.5,4.5));
#2111=CARTESIAN_POINT('',(12.5,-12.5,4.5));
#2112=CARTESIAN_POINT('',(12.5,-13.,4.5));
#2113=CARTESIAN_POINT('Origin',(12.5,-13.,5.));
#2114=CARTESIAN_POINT('',(12.5,-13.,5.));
#2115=CARTESIAN_POINT('',(12.5,-13.,5.));
#2116=CARTESIAN_POINT('',(12.5,-12.5,5.));
#2117=CARTESIAN_POINT('',(12.5,-12.5,5.));
#2118=CARTESIAN_POINT('',(12.5,-13.,5.));
#2119=CARTESIAN_POINT('Origin',(-12.5,-13.,5.));
#2120=CARTESIAN_POINT('',(-12.5,-13.,5.));
#2121=CARTESIAN_POINT('',(-12.5,-13.,5.));
#2122=CARTESIAN_POINT('',(-12.5,-12.5,5.));
#2123=CARTESIAN_POINT('',(-12.5,-12.5,5.));
#2124=CARTESIAN_POINT('',(-12.5,-13.,5.));
#2125=CARTESIAN_POINT('Origin',(-12.5,-13.,4.5));
#2126=CARTESIAN_POINT('',(-12.5,-13.,4.5));
#2127=CARTESIAN_POINT('',(-12.5,-12.5,4.5));
#2128=CARTESIAN_POINT('Origin',(0.,-12.5,4.75));
#2129=CARTESIAN_POINT('Origin',(0.,-13.,4.75));
#2130=CARTESIAN_POINT('Origin',(-5.5,-21.5,10.7109375));
#2131=CARTESIAN_POINT('',(-8.,-14.5,10.7109375));
#2132=CARTESIAN_POINT('Origin',(-5.5,-14.5,10.7109375));
#2133=CARTESIAN_POINT('',(-8.,-12.5,10.7109375));
#2134=CARTESIAN_POINT('',(-8.,-21.5,10.7109375));
#2135=CARTESIAN_POINT('Origin',(-5.5,-12.5,10.7109375));
#2136=CARTESIAN_POINT('Origin',(-5.5,-14.5,10.7109375));
#2137=CARTESIAN_POINT('Origin',(-5.5,-12.5,10.7109375));
#2138=CARTESIAN_POINT('Origin',(-5.5,-21.5,10.7109375));
#2139=CARTESIAN_POINT('',(-8.,-14.5,10.7109375));
#2140=CARTESIAN_POINT('Origin',(-5.5,-14.5,10.7109375));
#2141=CARTESIAN_POINT('',(-8.,-12.5,10.7109375));
#2142=CARTESIAN_POINT('',(-8.,-21.5,10.7109375));
#2143=CARTESIAN_POINT('Origin',(-5.5,-12.5,10.7109375));
#2144=CARTESIAN_POINT('Origin',(-5.5,-14.5,10.7109375));
#2145=CARTESIAN_POINT('Origin',(-5.5,-12.5,10.7109375));
#2146=CARTESIAN_POINT('Origin',(-5.5,-21.5,-1.3330625));
#2147=CARTESIAN_POINT('',(-8.,-14.5,-1.3330625));
#2148=CARTESIAN_POINT('Origin',(-5.5,-14.5,-1.3330625));
#2149=CARTESIAN_POINT('',(-8.,-12.5,-1.3330625));
#2150=CARTESIAN_POINT('',(-8.,-21.5,-1.3330625));
#2151=CARTESIAN_POINT('Origin',(-5.5,-12.5,-1.3330625));
#2152=CARTESIAN_POINT('Origin',(-5.5,-14.5,-1.3330625));
#2153=CARTESIAN_POINT('Origin',(-5.5,-12.5,-1.3330625));
#2154=UNCERTAINTY_MEASURE_WITH_UNIT(LENGTH_MEASURE(0.001),#2158,
'DISTANCE_ACCURACY_VALUE',
'Maximum model space distance between geometric entities at asserted c
onnectivities');
#2155=UNCERTAINTY_MEASURE_WITH_UNIT(LENGTH_MEASURE(0.001),#2158,
'DISTANCE_ACCURACY_VALUE',
'Maximum model space distance between geometric entities at asserted c
onnectivities');
#2156=(
GEOMETRIC_REPRESENTATION_CONTEXT(3)
GLOBAL_UNCERTAINTY_ASSIGNED_CONTEXT((#2154))
GLOBAL_UNIT_ASSIGNED_CONTEXT((#2158,#2160,#2161))
REPRESENTATION_CONTEXT('','3D')
);
#2157=(
GEOMETRIC_REPRESENTATION_CONTEXT(3)
GLOBAL_UNCERTAINTY_ASSIGNED_CONTEXT((#2155))
GLOBAL_UNIT_ASSIGNED_CONTEXT((#2158,#2160,#2161))
REPRESENTATION_CONTEXT('','3D')
);
#2158=(
LENGTH_UNIT()
NAMED_UNIT(*)
SI_UNIT(.CENTI.,.METRE.)
);
#2159=(
LENGTH_UNIT()
NAMED_UNIT(*)
SI_UNIT($,.METRE.)
);
#2160=(
NAMED_UNIT(*)
PLANE_ANGLE_UNIT()
SI_UNIT($,.RADIAN.)
);
#2161=(
NAMED_UNIT(*)
SI_UNIT($,.STERADIAN.)
SOLID_ANGLE_UNIT()
);
#2162=SHAPE_DEFINITION_REPRESENTATION(#2163,#2164);
#2163=PRODUCT_DEFINITION_SHAPE('',$,#2166);
#2164=SHAPE_REPRESENTATION('',(#1350),#2156);
#2165=PRODUCT_DEFINITION_CONTEXT('part definition',#2170,'design');
#2166=PRODUCT_DEFINITION('SolarPath+','SolarPath+ v5',#2167,#2165);
#2167=PRODUCT_DEFINITION_FORMATION('',$,#2172);
#2168=PRODUCT_RELATED_PRODUCT_CATEGORY('SolarPath+ v5','SolarPath+ v5',
(#2172));
#2169=APPLICATION_PROTOCOL_DEFINITION('international standard',
'automotive_design',2009,#2170);
#2170=APPLICATION_CONTEXT(
'Core Data for Automotive Mechanical Design Process');
#2171=PRODUCT_CONTEXT('part definition',#2170,'mechanical');
#2172=PRODUCT('SolarPath+','SolarPath+ v5',$,(#2171));
#2173=PRESENTATION_STYLE_ASSIGNMENT((#2175));
#2174=PRESENTATION_STYLE_ASSIGNMENT((#2176));
#2175=SURFACE_STYLE_USAGE(.BOTH.,#2177);
#2176=SURFACE_STYLE_USAGE(.BOTH.,#2178);
#2177=SURFACE_SIDE_STYLE('',(#2179));
#2178=SURFACE_SIDE_STYLE('',(#2180));
#2179=SURFACE_STYLE_FILL_AREA(#2181);
#2180=SURFACE_STYLE_FILL_AREA(#2182);
#2181=FILL_AREA_STYLE('\X\C7elik - Saten',(#2183));
#2182=FILL_AREA_STYLE('Cam (\X2\015E\X0\effaf)',(#2184));
#2183=FILL_AREA_STYLE_COLOUR('\X\C7elik - Saten',#2185);
#2184=FILL_AREA_STYLE_COLOUR('Cam (\X2\015E\X0\effaf)',#2186);
#2185=COLOUR_RGB('\X\C7elik - Saten',0.627450980392157,0.627450980392157,
0.627450980392157);
#2186=COLOUR_RGB('Cam (\X2\015E\X0\effaf)',0.964705882352941,0.964705882352941,
0.952941176470588);
ENDSEC;
END-ISO-10303-21;
